<svg width="36" height="36" viewBox="0 0 36 36" fill="none" xmlns="http://www.w3.org/2000/svg">
<path d="M14.67 16.74L12.54 18.87C11.52 17.835 10.53 16.5 9.855 14.46L12.765 13.725C13.245 15.06 13.92 15.975 14.67 16.74ZM16.5 9L10.5 3L4.5 9H9.03C9.06 10.215 9.15 11.31 9.315 12.255L12.225 11.52C12.12 10.8 12.045 9.945 12.03 9H16.5ZM31.5 9L25.5 3L19.5 9H23.985C23.835 14.52 22.065 16.125 20.175 17.82C19.425 18.48 18.66 19.2 18 20.145C17.49 19.41 16.905 18.825 16.305 18.285L14.19 20.4C15.585 21.675 16.5 22.71 16.5 25.5V33H19.5V25.5C19.5 22.47 20.565 21.51 22.185 20.055C24.255 18.195 26.805 15.885 26.985 9H31.5V9Z" fill="#F85931"/>
</svg>
