<svg width="36" height="36" viewBox="0 0 36 36" fill="none" xmlns="http://www.w3.org/2000/svg">
<path d="M16.5 13.5H19.5V16.5H16.5V13.5ZM13.5 16.5H16.5V19.5H13.5V16.5ZM19.5 16.5H22.5V19.5H19.5V16.5ZM22.5 13.5H25.5V16.5H22.5V13.5ZM10.5 13.5H13.5V16.5H10.5V13.5ZM28.5 4.5H7.5C5.85 4.5 4.5 5.85 4.5 7.5V28.5C4.5 30.15 5.85 31.5 7.5 31.5H28.5C30.15 31.5 31.5 30.15 31.5 28.5V7.5C31.5 5.85 30.15 4.5 28.5 4.5ZM13.5 27H10.5V24H13.5V27ZM19.5 27H16.5V24H19.5V27ZM25.5 27H22.5V24H25.5V27ZM28.5 16.5H25.5V19.5H28.5V22.5H25.5V19.5H22.5V22.5H19.5V19.5H16.5V22.5H13.5V19.5H10.5V22.5H7.5V19.5H10.5V16.5H7.5V7.5H28.5V16.5Z" fill="#AD00FF"/>
</svg>
