<svg width="36" height="36" viewBox="0 0 36 36" fill="none" xmlns="http://www.w3.org/2000/svg">
<g clip-path="url(#clip0_925_11554)">
<path d="M19 10.9766C23.3909 10.9766 26.9545 14.3993 26.9545 18.6164C26.9545 19.3957 26.7955 20.1444 26.5727 20.8473L31.4409 25.5229C33.6523 23.6435 35.4023 21.2904 36.5 18.6012C33.7477 11.9087 26.9545 7.15669 19 7.15669C16.9795 7.15669 15.0386 7.46229 13.2091 8.02763L16.6614 11.3433C17.4091 11.1294 18.1886 10.9766 19 10.9766ZM4.22045 5.8732C3.6 6.46911 3.6 7.43173 4.22045 8.02763L7.35455 11.0377C4.77727 13.0088 2.725 15.6063 1.5 18.6164C4.25227 25.3242 11.0455 30.0762 19 30.0762C21.4182 30.0762 23.725 29.6178 25.8568 28.8233L30.1841 32.9793C30.8045 33.5752 31.8068 33.5752 32.4273 32.9793C33.0477 32.3834 33.0477 31.4208 32.4273 30.8249L6.47955 5.8732C5.85909 5.27729 4.84091 5.27729 4.22045 5.8732ZM19 26.2563C14.6091 26.2563 11.0455 22.8336 11.0455 18.6164C11.0455 17.4399 11.3318 16.3245 11.825 15.3466L14.3227 17.7455C14.275 18.0205 14.2273 18.3109 14.2273 18.6164C14.2273 21.1529 16.3591 23.2003 19 23.2003C19.3182 23.2003 19.6045 23.1545 19.9068 23.0934L22.4045 25.4923C21.3705 25.9812 20.225 26.2563 19 26.2563ZM23.725 18.1122C23.4864 15.9731 21.7364 14.3076 19.525 14.0784L23.725 18.1122Z" fill="#1976D2"/>
</g>
<defs>
<clipPath id="clip0_925_11554">
<rect width="36" height="36" fill="white"/>
</clipPath>
</defs>
</svg>
