<svg width="36" height="36" viewBox="0 0 36 36" fill="none" xmlns="http://www.w3.org/2000/svg">
<path d="M33 28.5H24V22.5H19.98C18.27 26.13 14.58 28.5 10.5 28.5C4.71 28.5 0 23.79 0 18C0 12.21 4.71 7.5 10.5 7.5C14.58 7.5 18.255 9.87 19.98 13.5H36V22.5H33V28.5ZM27 25.5H30V19.5H33V16.5H17.91L17.565 15.495C16.515 12.51 13.665 10.5 10.5 10.5C6.36 10.5 3 13.86 3 18C3 22.14 6.36 25.5 10.5 25.5C13.665 25.5 16.515 23.49 17.565 20.505L17.91 19.5H27V25.5ZM10.5 22.5C8.025 22.5 6 20.475 6 18C6 15.525 8.025 13.5 10.5 13.5C12.975 13.5 15 15.525 15 18C15 20.475 12.975 22.5 10.5 22.5ZM10.5 16.5C9.675 16.5 9 17.175 9 18C9 18.825 9.675 19.5 10.5 19.5C11.325 19.5 12 18.825 12 18C12 17.175 11.325 16.5 10.5 16.5Z" fill="#FFB61A"/>
</svg>
