<svg width="349" height="73" viewBox="0 0 349 73" fill="none" xmlns="http://www.w3.org/2000/svg">
<path d="M222.382 49C219.189 49 216.366 48.6751 213.913 48.0252C211.507 47.3753 209.61 46.4683 208.221 45.3039C206.833 44.1396 206.093 42.8399 206 41.4048H211.137C211.368 42.7857 212.409 44.0042 214.26 45.0602C216.111 46.0892 218.819 46.6036 222.382 46.6036C225.667 46.6036 228.259 46.1162 230.156 45.1415C232.1 44.1396 233.072 42.8805 233.072 41.3641C233.072 40.1457 232.539 39.1709 231.475 38.4398C230.411 37.6816 229.092 37.1265 227.518 36.7745C225.945 36.3954 223.77 35.9893 220.993 35.556C217.754 35.0415 215.186 34.5406 213.289 34.0532C211.391 33.5658 209.772 32.8077 208.43 31.7787C207.087 30.7498 206.416 29.3553 206.416 27.5952C206.416 26.1331 207.064 24.8333 208.36 23.6961C209.656 22.5317 211.484 21.6246 213.844 20.9748C216.204 20.3249 218.911 20 221.965 20C226.454 20 230.064 20.6499 232.794 21.9496C235.57 23.2222 237.167 24.8739 237.584 26.9048H232.308C231.984 25.7404 230.897 24.7115 229.046 23.8179C227.195 22.8973 224.696 22.437 221.549 22.437C218.633 22.437 216.204 22.8973 214.26 23.8179C212.317 24.7115 211.345 25.9435 211.345 27.514C211.345 28.7054 211.877 29.6667 212.941 30.3978C214.006 31.1289 215.325 31.6839 216.898 32.063C218.518 32.4421 220.693 32.8483 223.423 33.2815C226.57 33.796 229.115 34.3105 231.059 34.8249C233.002 35.3123 234.645 36.0705 235.987 37.0994C237.329 38.1284 238 39.5093 238 41.2423C238 42.5691 237.398 43.8282 236.195 45.0196C234.992 46.211 233.21 47.1723 230.85 47.9034C228.49 48.6345 225.667 49 222.382 49Z" fill="white"/>
<path d="M104.382 49C101.189 49 98.3659 48.6751 95.9132 48.0252C93.5069 47.3753 91.6095 46.4683 90.2213 45.3039C88.833 44.1396 88.0926 42.8399 88 41.4048H93.1367C93.368 42.7857 94.4093 44.0042 96.2603 45.0602C98.1114 46.0892 100.819 46.6036 104.382 46.6036C107.667 46.6036 110.259 46.1162 112.156 45.1415C114.1 44.1396 115.072 42.8805 115.072 41.3641C115.072 40.1457 114.539 39.1709 113.475 38.4398C112.411 37.6816 111.092 37.1265 109.518 36.7745C107.945 36.3954 105.77 35.9893 102.993 35.556C99.7542 35.0415 97.1858 34.5406 95.2885 34.0532C93.3912 33.5658 91.7715 32.8077 90.4295 31.7787C89.0875 30.7498 88.4165 29.3553 88.4165 27.5952C88.4165 26.1331 89.0644 24.8333 90.3601 23.6961C91.6558 22.5317 93.4837 21.6246 95.8438 20.9748C98.2039 20.3249 100.911 20 103.965 20C108.454 20 112.064 20.6499 114.794 21.9496C117.571 23.2222 119.167 24.8739 119.584 26.9048H114.308C113.984 25.7404 112.897 24.7115 111.046 23.8179C109.195 22.8973 106.696 22.437 103.549 22.437C100.633 22.437 98.2039 22.8973 96.2603 23.8179C94.3167 24.7115 93.3449 25.9435 93.3449 27.514C93.3449 28.7054 93.8771 29.6667 94.9414 30.3978C96.0058 31.1289 97.3247 31.6839 98.898 32.063C100.518 32.4421 102.693 32.8483 105.423 33.2815C108.57 33.796 111.115 34.3105 113.059 34.8249C115.002 35.3123 116.645 36.0705 117.987 37.0994C119.329 38.1284 120 39.5093 120 41.2423C120 42.5691 119.398 43.8282 118.195 45.0196C116.992 46.211 115.21 47.1723 112.85 47.9034C110.49 48.6345 107.667 49 104.382 49Z" fill="white"/>
<g opacity="0.55">
<path opacity="0.55" d="M0.619141 66.8757C4.63112 51.2293 9.46807 40.4885 15.4133 34.043C20.2929 28.7543 25.9222 26.2918 33.1262 26.2918C37.2786 26.2918 41.5389 27.0972 45.6637 27.8733C49.6932 28.6323 53.8607 29.4181 57.83 29.4181C63.3164 29.4181 67.6795 27.9221 71.5585 24.7079C76.3027 20.7761 80.2896 14.2696 83.7475 4.8125L84.946 5.16394C80.8663 21.0983 75.8739 32.01 69.6905 38.536C64.6755 43.8345 58.833 46.3019 51.3306 46.3019C47.2911 46.3019 43.1612 45.6087 39.1668 44.9376C35.2877 44.286 31.2757 43.6124 27.4693 43.6124C21.9378 43.6124 17.5798 45.0376 13.7509 48.103C9.04932 51.8639 5.14767 58.1092 1.81772 67.2271L0.619141 66.8757Z" fill="#242424"/>
<path opacity="0.55" d="M84.3394 5.01743C75.6159 39.0655 63.778 45.6916 51.3308 45.6916C43.4021 45.6916 35.2327 43.007 27.4696 43.007C17.6176 43.007 8.41263 47.3439 1.22616 67.0269C9.7742 33.6549 21.1281 26.9018 33.1189 26.9018C41.2808 26.9018 49.7411 30.0282 57.8202 30.0282C67.6245 30.0282 76.8771 25.418 84.3294 5.01743H84.3394ZM83.1484 4.60742C79.7281 13.9621 75.8014 20.3831 71.1425 24.2441C67.3813 27.3582 63.1511 28.8079 57.8202 28.8079C53.911 28.8079 49.7737 28.0269 45.7717 27.2728C41.6218 26.4918 37.3315 25.684 33.1189 25.6816C25.7218 25.6816 19.9446 28.21 14.9396 33.6353C8.92165 40.1589 4.03455 50.9828 0 66.7267L2.39716 67.4321C5.69952 58.4313 9.54852 52.2616 14.1498 48.5739C17.8583 45.6038 22.091 44.2224 27.4696 44.2224C31.2308 44.2224 35.0296 44.8619 39.0617 45.5379C43.0937 46.2139 47.2361 46.9119 51.3308 46.9119C59.0188 46.9119 64.9992 44.3811 70.1521 38.9508C76.4082 32.3614 81.4483 21.3472 85.5556 5.31274L83.1584 4.60742H83.1484Z" fill="#171717"/>
<g opacity="0.490196">
<path opacity="0.490196" d="M74.851 25.5768C72.6268 30.1845 70.2096 33.8502 67.5792 36.6325C63.0783 41.3793 58.0708 43.4953 51.3382 43.4953C47.5444 43.4953 43.5399 42.8217 39.6659 42.1725C35.6539 41.4989 31.5316 40.8058 27.477 40.8058C21.2409 40.8058 16.2986 42.4361 11.9305 45.931C11.3789 46.3719 10.8373 46.8437 10.3057 47.3465C17.5724 31.6806 25.7468 29.0985 33.1188 29.0985C36.9929 29.0985 40.9322 29.8307 45.1021 30.6287C49.2721 31.4268 53.5749 32.2248 57.8201 32.2248C63.9459 32.2248 69.0486 30.4652 73.4167 26.8556C73.8998 26.4554 74.3745 26.0323 74.8409 25.5865L74.851 25.5768ZM84.3293 5.02734C76.8795 25.4181 67.6344 30.0283 57.8301 30.0283C49.751 30.0283 41.2807 26.9044 33.1289 26.902C21.128 26.902 9.7741 33.655 1.22607 67.0222C8.42257 47.3392 17.6175 43.0023 27.4695 43.0023C35.2427 43.0023 43.402 45.6869 51.3307 45.6869C63.7729 45.6869 75.6157 39.0608 84.3393 5.0127L84.3293 5.02734Z" fill="#CCAD6E"/>
</g>
<g opacity="0.490196">
<path opacity="0.490196" d="M32.8683 29.0495C36.9706 29.0495 41.0302 30.4455 45.333 31.9221C49.6936 33.4181 54.2045 34.9679 58.8484 34.9679C62.9331 34.9679 66.6216 33.7744 70.077 31.3217C68.4726 33.7334 66.6026 35.9675 64.5003 37.9844C60.5936 41.633 56.6142 43.3316 51.9779 43.3316C47.8581 43.3316 43.7909 42.0259 39.4856 40.647C35.1802 39.2681 30.7319 37.8355 26.1959 37.8355C22.0911 37.8355 18.4226 39.0045 14.9999 41.4085C16.8906 38.553 18.8063 36.2101 20.7671 34.3553C24.5735 30.7384 28.42 29.0544 32.8758 29.0544L32.8683 29.0495ZM80.3351 15.7607C72.8753 29.3815 65.8042 33.1667 58.8584 33.1667C50.17 33.1667 41.6846 27.246 32.8683 27.246C24.1322 27.246 15.0852 33.0691 5.2207 56.2885C12.3645 43.2462 19.2952 39.6391 26.1959 39.6391C34.7213 39.6391 43.1941 45.1377 51.9679 45.1377C60.9948 45.1377 70.3102 39.334 80.3251 15.7681L80.3351 15.7607Z" fill="#CCAD6E"/>
</g>
<g opacity="0.44">
<path opacity="0.44" d="M33.6784 29.0446C37.7305 29.0446 41.4516 30.9654 45.3733 33.0008C49.4179 35.0899 53.5878 37.2522 58.2869 37.2522C60.8063 37.2386 63.2842 36.627 65.5059 35.4706C60.6314 40.6983 56.0201 43.1974 51.4013 43.1974C47.2915 43.1974 43.5203 41.3401 39.5283 39.3755C35.4988 37.3913 31.3288 35.3388 26.7226 35.3388C24.2368 35.3466 21.7899 35.9403 19.5913 37.0692C24.506 31.6365 29.1197 29.0446 33.6784 29.0446ZM75.7766 24.0732C68.9738 32.9764 63.3595 35.7879 58.2869 35.7879C49.6084 35.7879 42.4897 27.5803 33.6809 27.5803C27.1137 27.5803 19.6038 32.1246 9.79199 47.9931C16.2713 39.5073 21.7226 36.8276 26.7226 36.8276C35.2857 36.8276 42.5198 44.6861 51.4013 44.6861C58.154 44.6861 65.847 40.1296 75.7766 24.0732Z" fill="#CCAD6E"/>
</g>
<g opacity="0.39">
<path opacity="0.39" d="M34.8192 29.23C38.7334 29.23 41.8979 31.4802 45.2454 33.8671C48.7233 36.3418 52.3215 38.8995 56.9253 38.8995C58.4169 38.888 59.8957 38.6297 61.2983 38.1356C60.4307 38.8399 59.5259 39.4997 58.5877 40.1125C55.654 42.0088 52.981 42.9313 50.4108 42.9313C46.4214 42.9313 43.1767 40.7201 39.7414 38.3797C36.2435 35.9928 32.6177 33.5278 28.1042 33.5278C26.6511 33.5376 25.2101 33.7851 23.8414 34.26C24.799 33.4587 25.8037 32.7122 26.8504 32.0245C29.7315 30.1428 32.3443 29.23 34.8368 29.23H34.8192ZM34.8368 28.0098C29.7767 28.0098 23.4979 31.3558 14.5913 41.9844C20.0852 36.5956 24.4081 34.731 28.1318 34.731C36.4717 34.731 41.76 44.1296 50.4484 44.1296C55.6389 44.1296 62.038 40.7714 71.0299 30.0403C65.2401 35.717 60.7492 37.6768 56.9629 37.6768C48.5252 37.6768 43.455 28.0098 34.8568 28.0098H34.8368Z" fill="#CCAD6E"/>
</g>
<g opacity="0.34">
<path opacity="0.34" d="M35.9146 28.4658V29.4591C39.7786 29.4591 42.3388 31.9412 45.0519 34.5696C47.8953 37.3226 50.8341 40.1829 55.4053 40.1829C56.1113 40.1807 56.8156 40.1145 57.5091 39.9852C54.4474 41.7693 51.7694 42.6479 49.4224 42.6479C45.4706 42.6479 42.8202 40.1829 40.0143 37.574C37.1307 34.882 34.1593 32.1266 29.6759 32.1266C28.9972 32.1286 28.3199 32.1899 27.6524 32.3097C30.8118 30.4085 33.5475 29.4713 35.9271 29.4713V28.4658H35.9146ZM35.9271 28.4658C31.9853 28.4658 26.7823 30.7551 19.1646 37.4519C23.5552 34.2914 26.9227 33.1077 29.696 33.1077C37.9381 33.1077 40.8217 43.629 49.445 43.629C53.477 43.629 58.7578 41.3324 66.4307 34.5989C61.7893 37.9425 58.2763 39.1896 55.4278 39.1896C47.0829 39.1896 44.4601 28.4805 35.9371 28.478L35.9271 28.4658Z" fill="#CCAD6E"/>
</g>
<g opacity="0.29">
<path opacity="0.29" d="M36.8627 29.0127V29.8278C40.7393 29.8278 42.7102 32.3904 44.7989 35.1043C47.0055 37.9695 49.2848 40.9323 53.851 40.9323H54.2572C52.0957 41.8109 50.2051 42.2429 48.5602 42.2429C44.5908 42.2429 42.5297 39.6755 40.3481 36.9591C38.0914 34.1574 35.7695 31.258 31.3061 31.258H30.9501C33.2068 30.3013 35.1727 29.8303 36.8602 29.8303V29.0151L36.8627 29.0127ZM36.8602 29.0151C33.761 29.0151 29.5509 30.4795 23.4326 34.4649C26.7099 32.7565 29.25 32.0683 31.3036 32.0683C39.5207 32.0683 39.9144 43.0507 48.5577 43.0507C51.7171 43.0507 55.9748 41.5864 62.1232 37.579C58.6453 39.3948 55.9773 40.1196 53.8485 40.1196C45.5061 40.1196 45.4007 29.0151 36.8602 29.0127V29.0151Z" fill="#CCAD6E"/>
</g>
<g opacity="0.24">
<path opacity="0.24" d="M37.5194 29.5352V30.2039C41.6166 30.2039 43.0359 32.7908 44.5404 35.5291C45.9445 38.0844 47.5193 40.9545 51.466 41.3865C50.3279 41.6786 49.1575 41.8351 47.9806 41.8526C43.7906 41.8526 42.2886 39.2437 40.7089 36.4834C39.2671 33.9818 37.6498 31.1728 33.8158 30.7286C35.0264 30.3995 36.2752 30.2215 37.5319 30.199V29.5303L37.5194 29.5352ZM37.5319 29.5303C35.1197 29.5303 31.865 30.3454 27.3164 32.4174C29.513 31.6609 31.2833 31.3363 32.7376 31.3363C41.2982 31.3363 38.9361 42.5189 47.9907 42.5189C50.4405 42.5189 53.7203 41.7037 58.2714 39.6268C55.9319 40.4322 54.0588 40.7763 52.5367 40.7763C43.8132 40.7763 46.4812 29.5303 37.5244 29.5303H37.5319Z" fill="#CCAD6E"/>
</g>
<g opacity="0.19">
<path opacity="0.19" d="M37.8231 30.6141C42.3366 30.6141 43.2293 33.0302 44.2699 35.8271C45.1049 38.0724 46.0251 40.5642 49.1796 41.3696C48.6964 41.4188 48.211 41.444 47.7252 41.4452C43.1265 41.4452 42.111 38.8827 41.0352 36.1663C40.1626 33.9698 39.1922 31.5146 36.1356 30.7166C36.6956 30.6509 37.2591 30.6167 37.8231 30.6141ZM37.8231 30.0674C36.0203 30.0674 33.6958 30.4457 30.6567 31.3414C31.7075 31.1252 32.7774 31.0092 33.8513 30.9948C43.0638 30.9948 37.9084 41.9944 47.7252 41.9944C49.5457 41.9944 51.8801 41.6161 54.9192 40.718C53.7994 40.9498 52.6588 41.0741 51.514 41.0889C42.0708 41.0889 47.5522 30.0674 37.8231 30.0674Z" fill="#CCAD6E"/>
</g>
<g opacity="0.09">
<path opacity="0.09" d="M38.0685 30.9071C43.0158 31.0877 43.4797 33.394 44.0163 36.0444C44.405 37.9822 44.8337 40.1031 47.2911 41.1379C42.4591 40.8938 41.92 38.4728 41.3508 35.9273C40.9246 34.0188 40.4557 31.9248 38.0685 30.9071ZM37.4266 30.4482C36.1321 30.46 34.8401 30.5603 33.5601 30.7484C33.8284 30.7362 34.0866 30.7313 34.3324 30.7313C45.3026 30.7313 36.3559 41.6089 48.1562 41.6089C49.4472 41.5971 50.7359 41.4977 52.0127 41.3111C51.7243 41.3233 51.446 41.3282 51.1802 41.3282C39.8238 41.3282 49.1742 30.4482 37.4266 30.4482Z" fill="#CCAD6E"/>
</g>
<g opacity="0.04">
<path opacity="0.04" d="M39.5755 31.3342C41.0248 31.5954 42.0604 32.042 42.7073 32.679C43.6501 33.6064 43.7103 34.8608 43.783 36.1861C43.8633 37.809 43.9535 39.5809 45.8367 40.7011C41.9325 39.9372 41.7871 37.9115 41.6441 35.7883C41.5288 34.1873 41.3934 32.4398 39.5855 31.3391L39.5755 31.3342ZM35.9521 30.6924C46.7745 31.7613 34.8589 41.3307 49.643 41.382C38.3844 40.2691 50.7915 30.7436 35.9521 30.6924Z" fill="#CCAD6E"/>
</g>
</g>
<path d="M42.2943 60.125C56.5139 60.125 68.0412 48.9054 68.0412 35.0654C68.0412 21.2254 56.5139 10.0059 42.2943 10.0059C28.0746 10.0059 16.5474 21.2254 16.5474 35.0654C16.5474 48.9054 28.0746 60.125 42.2943 60.125Z" fill="url(#paint0_radial_951_11743)"/>
<path d="M42.294 10.0063C47.3867 10.0063 52.365 11.4763 56.5993 14.2303C60.8336 16.9843 64.1336 20.8987 66.082 25.4783C68.0305 30.0579 68.5397 35.097 67.5455 39.9584C66.5512 44.8197 64.0981 49.2849 60.4963 52.7891C56.8945 56.2934 52.3059 58.6793 47.3108 59.6451C42.3158 60.611 37.1386 60.1133 32.4342 58.2151C27.7297 56.3169 23.7093 53.1034 20.8814 48.9811C18.0535 44.8588 16.5451 40.0129 16.5471 35.0561C16.5498 28.4116 19.2636 22.0401 24.0918 17.3426C28.92 12.6452 35.4673 10.0063 42.294 10.0063ZM42.294 5.87802e-05C33.3794 0.0072331 24.7853 3.23703 18.179 9.06285C11.5727 14.8887 7.42517 22.8952 6.54111 31.5291C5.65705 40.163 8.09946 48.8087 13.3945 55.7889C18.6895 62.7692 26.4597 67.5863 35.1975 69.3058C43.9354 71.0252 53.0179 69.5244 60.6832 65.0946C68.3484 60.6647 74.0498 53.6215 76.6813 45.3315C79.3128 37.0415 78.6867 28.0956 74.9246 20.2295C71.1625 12.3633 64.5325 6.13765 56.3209 2.76032C51.884 0.930303 47.1129 -0.00855809 42.294 5.87802e-05Z" fill="url(#paint1_radial_951_11743)"/>
<path d="M1.77539 67.1569C30.9701 64.3771 31.9656 51.2152 33.0187 37.2773C33.6381 29.0868 34.2725 20.6181 40.8647 14.2385C44.4027 10.8217 49.3024 8.29574 55.8419 6.55319C63.1287 4.60075 72.2559 3.66602 83.7427 3.66602L83.8054 4.88629C53.1012 7.80519 52.3715 21.1452 51.6017 35.2711C50.7141 51.5471 49.7963 68.3747 1.82303 68.3747L1.77539 67.1569Z" fill="#242424"/>
<path d="M83.7426 4.27594C16.5469 10.6726 90.3674 67.7595 1.82293 67.7595C66.4234 61.6094 -4.44579 4.27106 83.7426 4.27106V4.27594ZM83.7426 3.05078C72.2082 3.05078 63.0182 4.0026 55.6763 5.95992C49.0289 7.73176 44.0415 10.2968 40.4232 13.8014C33.6706 20.3396 33.0211 28.9328 32.3993 37.2307C31.8727 44.1863 31.3762 50.7562 27.4771 55.9912C25.4009 58.7808 22.5223 60.9626 18.6783 62.6612C14.2676 64.6137 8.71602 65.8803 1.70508 66.549L1.82794 68.9896C13.3223 68.9896 22.4395 68.0573 29.6987 66.1415C36.2834 64.4013 41.2006 61.8827 44.7286 58.4366C51.3233 51.996 51.7847 43.5127 52.2335 35.31C52.6172 28.2812 52.9858 21.6429 56.9501 16.3225C59.0739 13.4817 62.0553 11.2535 66.0673 9.51092C70.6084 7.53895 76.5988 6.18689 83.8705 5.49621L83.7476 3.05566L83.7426 3.05078Z" fill="#171717"/>
<g opacity="0.490196">
<path opacity="0.490196" d="M60.9092 8.28375C58.2534 9.83421 55.9409 11.8833 54.1064 14.3119C49.5227 20.4499 49.1165 27.9107 48.7228 35.1249C48.2915 43.0372 47.8828 50.5004 42.236 56.0209C38.3744 59.7916 32.2286 62.4249 23.6429 63.9576C26.249 62.4185 28.5166 60.3931 30.3154 57.9978C34.7988 51.9794 35.3554 44.6089 35.8945 37.4849C36.5013 29.4531 37.0756 21.8654 42.8979 16.2277C46.7394 12.5059 52.6972 9.88231 60.9092 8.28375ZM83.7424 4.27636C-4.45098 4.27636 66.4232 61.6147 1.82275 67.76C90.3672 67.76 16.5467 10.6682 83.7424 4.27148V4.27636Z" fill="#CCAD6E"/>
</g>
<g opacity="0.490196">
<path opacity="0.490196" d="M54.0441 11.3827C52.084 12.9526 50.4645 14.8865 49.2799 17.0716C46.3235 22.5873 46.9203 28.6862 47.497 34.585C48.1289 41.05 48.7232 47.1587 44.8291 52.2937C42.1661 55.808 37.5072 58.6659 30.7345 60.9186C32.656 59.3649 34.2435 57.4574 35.4059 55.3053C38.2945 49.897 37.8332 43.8542 37.3843 38.0115C36.8828 31.4221 36.4064 25.2084 40.4284 19.9515C43.0813 16.481 47.5873 13.6426 54.0516 11.39L54.0441 11.3827ZM72.073 5.45703C0.534259 15.8269 65.1322 53.9996 13.5005 66.5831C85.315 56.1741 18.36 18.5457 72.0654 5.45947L72.073 5.45703Z" fill="#CCAD6E"/>
</g>
<g opacity="0.44">
<path opacity="0.44" d="M48.8207 14.7114C47.4233 16.2163 46.3475 17.9767 45.6562 19.8903C43.9536 24.7153 45.2024 29.589 46.4085 34.3042C47.7324 39.4733 48.9837 44.3544 46.4712 48.9817C44.751 52.1544 41.3333 55.0171 36.1253 57.6505C37.4889 56.1616 38.5363 54.4247 39.207 52.54C40.8719 47.8102 39.736 42.9657 38.6403 38.2823C37.4041 33.0034 36.2381 28.0173 38.8384 23.2729C40.556 20.1441 43.8533 17.3057 48.8107 14.7114H48.8207ZM62.6771 7.75586C5.98022 24.6713 63.1535 47.9395 22.8682 64.2839C79.7882 47.3001 20.7744 24.747 62.6771 7.75586Z" fill="#CCAD6E"/>
</g>
<g opacity="0.39">
<path opacity="0.39" d="M45.117 18.0556C44.1756 19.436 43.5229 20.9835 43.1963 22.6096C42.3889 26.7195 43.9862 30.5341 45.5283 34.2242C47.2208 38.2682 48.8206 42.0901 47.3337 46.1292C46.3181 48.8895 43.8934 51.6034 39.9917 54.3246C40.9081 52.9624 41.5434 51.4397 41.8623 49.8413C42.6472 45.8144 41.1502 42.0096 39.6984 38.3317C38.066 34.1827 36.5214 30.2778 38.066 26.1289C39.084 23.4004 41.4135 20.728 45.117 18.0751V18.0556ZM55.5607 10.8437C11.5543 30.9758 60.7512 43.3885 30.0044 61.2167C74.1788 40.9845 23.5902 29.37 55.5607 10.8242V10.8437Z" fill="#CCAD6E"/>
</g>
<g opacity="0.34">
<path opacity="0.34" d="M42.3967 21.1767C41.8104 22.4075 41.4781 23.7384 41.4188 25.0938C41.2884 28.5105 43.0687 31.4221 44.7913 34.2263C46.6795 37.299 48.4623 40.2032 47.7727 43.659C47.3013 46.0166 45.6815 48.5108 42.8656 51.1881C43.4374 49.9738 43.7586 48.662 43.8109 47.3272C43.9338 43.969 42.2337 41.0672 40.5888 38.2605C38.7358 35.0878 36.9855 32.1104 37.7102 28.5642C38.1866 26.2286 39.7337 23.7808 42.3967 21.1767ZM49.9192 14.0527C16.8203 35.7028 58.2791 39.8225 35.6265 57.9826C68.8507 36.2471 26.3488 32.9426 49.9192 14.0527Z" fill="#CCAD6E"/>
</g>
<g opacity="0.29">
<path opacity="0.29" d="M40.6539 24.0221C40.3274 25.0878 40.22 26.2058 40.3379 27.3119C40.6489 30.1088 42.4467 32.2565 44.1844 34.3334C46.0901 36.6104 47.8905 38.763 47.7501 41.6551C47.6548 43.6221 46.6443 45.8333 44.6834 48.33C44.9987 47.2788 45.1001 46.1779 44.9818 45.0889C44.6734 42.3482 42.9407 40.1883 41.2657 38.1016C39.3776 35.7489 37.5947 33.5256 37.7552 30.5652C37.858 28.6128 38.8159 26.4529 40.6589 24.0318L40.6539 24.0221ZM45.9246 17.3838C21.7023 38.7606 55.8393 37.328 39.6709 54.6778C63.9936 33.201 29.1069 35.4268 45.9246 17.3838Z" fill="#CCAD6E"/>
</g>
<g opacity="0.24">
<path opacity="0.24" d="M39.5408 26.514C39.0067 30.3603 41.4565 32.5153 43.6982 34.4873C45.5337 36.1029 47.2664 37.6283 47.5222 39.981C47.6952 41.5869 47.1586 43.5002 45.8898 45.7626C46.0105 44.8718 45.9518 43.9665 45.7168 43.0976C45.1175 40.9157 43.4375 39.3757 41.8126 37.887C39.9796 36.2079 38.252 34.624 37.9987 32.2054C37.8332 30.6019 38.3397 28.7178 39.5408 26.514ZM42.9284 20.5322C26.0279 40.7888 53.5126 35.4977 42.625 51.5272C59.5932 31.1877 31.5921 37.2061 42.9284 20.5322Z" fill="#CCAD6E"/>
</g>
<g opacity="0.19">
<path opacity="0.19" d="M39.0038 28.6647C39.0339 31.8374 41.2806 33.3188 43.3368 34.6635C45.0193 35.7642 46.609 36.8063 47.098 38.688C47.434 39.9791 47.2234 41.6167 46.4511 43.6033C46.4084 40.5062 44.2169 39.0077 42.2109 37.6361C40.5234 36.4818 38.9286 35.3933 38.4346 33.4579C38.1061 32.1766 38.2917 30.5903 39.0013 28.6647H39.0038ZM41.0324 23.4248C29.7487 41.7899 51.4209 34.3658 44.5103 48.6064C55.8391 30.1754 33.8459 38.2292 41.0349 23.4248H41.0324Z" fill="#CCAD6E"/>
</g>
<g opacity="0.09">
<path opacity="0.09" d="M38.7685 30.5072C39.1997 33.0918 41.2107 34.0094 43.0537 34.849C44.5582 35.5372 45.9825 36.1864 46.6219 37.6507C47.0632 38.6562 47.1008 40.001 46.7347 41.7142C46.3009 39.2078 44.3301 38.2633 42.5297 37.3969C40.13 36.245 37.8382 35.1443 38.7685 30.5072ZM39.7388 26.0264C32.9686 42.2878 49.5707 33.6238 45.807 46.0072C52.6048 29.6799 35.8247 38.9076 39.7388 26.0264Z" fill="#CCAD6E"/>
</g>
<g opacity="0.04">
<path opacity="0.04" d="M38.8561 32.005C39.5181 34.0527 41.2633 34.5652 42.8681 35.0362C44.172 35.4218 45.4057 35.783 46.1027 36.8983C46.5817 37.6647 46.7748 38.7507 46.687 40.1833C46.03 38.2016 44.3174 37.6598 42.7502 37.1644C40.664 36.503 38.6706 35.8733 38.8636 32.005H38.8561ZM39.1144 28.2539C35.6039 42.2285 48.0134 33.2912 46.4588 43.771C49.9994 29.7426 37.4996 39.1583 39.1144 28.2539Z" fill="#CCAD6E"/>
</g>
<path d="M137.311 27.6973V48H135.313V27.6973H125.243V25.8604H147.382V27.6973H137.311ZM170.004 48L166.959 42.167H151.925L148.88 48H146.672L158.257 25.8604H160.626L172.212 48H170.004ZM159.45 27.8101L152.908 40.314H165.976L159.45 27.8101ZM179.912 38.5254V48H177.898V25.8604H188.92C190.606 25.8604 192.051 25.9946 193.254 26.2632C194.457 26.521 195.44 26.9185 196.203 27.4556C196.976 27.9819 197.54 28.6426 197.895 29.4375C198.249 30.2324 198.427 31.1616 198.427 32.2251C198.427 33.8794 197.992 35.2061 197.121 36.2051C196.251 37.1934 194.849 37.8701 192.916 38.2354L200.473 48H197.943L190.805 38.4609C190.504 38.4824 190.198 38.4985 189.887 38.5093C189.575 38.52 189.253 38.5254 188.92 38.5254H179.912ZM196.348 32.2251C196.348 31.2798 196.181 30.5171 195.848 29.937C195.515 29.3462 194.973 28.8896 194.221 28.5674C193.469 28.2451 192.481 28.0303 191.256 27.9229C190.042 27.8047 188.549 27.7456 186.777 27.7456H179.912V36.6401H186.712C188.485 36.6401 189.983 36.5918 191.208 36.4951C192.432 36.3877 193.426 36.1782 194.189 35.8667C194.951 35.5444 195.499 35.0986 195.832 34.5293C196.176 33.9492 196.348 33.1812 196.348 32.2251Z" fill="white"/>
<path d="M137.311 27.6973V27.0973H136.711V27.6973H137.311ZM137.311 48V48.6H137.911V48H137.311ZM135.313 48H134.713V48.6H135.313V48ZM135.313 27.6973H135.913V27.0973H135.313V27.6973ZM125.243 27.6973H124.643V28.2973H125.243V27.6973ZM125.243 25.8604V25.2604H124.643V25.8604H125.243ZM147.382 25.8604H147.982V25.2604H147.382V25.8604ZM147.382 27.6973V28.2973H147.982V27.6973H147.382ZM136.711 27.6973V48H137.911V27.6973H136.711ZM137.311 47.4H135.313V48.6H137.311V47.4ZM135.913 48V27.6973H134.713V48H135.913ZM135.313 27.0973H125.243V28.2973H135.313V27.0973ZM125.843 27.6973V25.8604H124.643V27.6973H125.843ZM125.243 26.4604H147.382V25.2604H125.243V26.4604ZM146.782 25.8604V27.6973H147.982V25.8604H146.782ZM147.382 27.0973H137.311V28.2973H147.382V27.0973ZM170.004 48L169.472 48.2777L169.64 48.6H170.004V48ZM166.959 42.167L167.491 41.8893L167.322 41.567H166.959V42.167ZM151.925 42.167V41.567H151.561L151.393 41.8893L151.925 42.167ZM148.88 48V48.6H149.243L149.411 48.2777L148.88 48ZM146.672 48L146.14 47.7218L145.681 48.6H146.672V48ZM158.257 25.8604V25.2604H157.894L157.726 25.5822L158.257 25.8604ZM160.626 25.8604L161.158 25.5822L160.989 25.2604H160.626V25.8604ZM172.212 48V48.6H173.203L172.743 47.7218L172.212 48ZM159.45 27.8101L159.982 27.5324L159.451 26.5145L158.918 27.5319L159.45 27.8101ZM152.908 40.314L152.376 40.0358L151.917 40.914H152.908V40.314ZM165.976 40.314V40.914H166.966L166.508 40.0364L165.976 40.314ZM170.536 47.7223L167.491 41.8893L166.427 42.4447L169.472 48.2777L170.536 47.7223ZM166.959 41.567H151.925V42.767H166.959V41.567ZM151.393 41.8893L148.348 47.7223L149.411 48.2777L152.457 42.4447L151.393 41.8893ZM148.88 47.4H146.672V48.6H148.88V47.4ZM147.204 48.2782L158.789 26.1385L157.726 25.5822L146.14 47.7218L147.204 48.2782ZM158.257 26.4604H160.626V25.2604H158.257V26.4604ZM160.094 26.1385L171.68 48.2782L172.743 47.7218L161.158 25.5822L160.094 26.1385ZM172.212 47.4H170.004V48.6H172.212V47.4ZM158.918 27.5319L152.376 40.0358L153.439 40.5921L159.981 28.0882L158.918 27.5319ZM152.908 40.914H165.976V39.714H152.908V40.914ZM166.508 40.0364L159.982 27.5324L158.918 28.0877L165.444 40.5916L166.508 40.0364ZM179.912 38.5254V37.9254H179.312V38.5254H179.912ZM179.912 48V48.6H180.512V48H179.912ZM177.898 48H177.298V48.6H177.898V48ZM177.898 25.8604V25.2604H177.298V25.8604H177.898ZM193.254 26.2632L193.124 26.8488L193.129 26.8499L193.254 26.2632ZM196.203 27.4556L195.857 27.9462L195.865 27.9516L196.203 27.4556ZM197.121 36.2051L197.572 36.6016L197.574 36.5991L197.121 36.2051ZM192.916 38.2354L192.804 37.6458L191.842 37.8277L192.441 38.6026L192.916 38.2354ZM200.473 48V48.6H201.696L200.947 47.6328L200.473 48ZM197.943 48L197.463 48.3595L197.643 48.6H197.943V48ZM190.805 38.4609L191.285 38.1015L191.089 37.8391L190.762 37.8625L190.805 38.4609ZM195.848 29.937L195.326 30.2316L195.328 30.2357L195.848 29.937ZM191.256 27.9229L191.198 28.5201L191.204 28.5206L191.256 27.9229ZM179.912 27.7456V27.1456H179.312V27.7456H179.912ZM179.912 36.6401H179.312V37.2401H179.912V36.6401ZM191.208 36.4951L191.255 37.0933L191.26 37.0928L191.208 36.4951ZM194.189 35.8667L194.416 36.4222L194.422 36.4194L194.189 35.8667ZM195.832 34.5293L195.316 34.2234L195.314 34.2264L195.832 34.5293ZM179.312 38.5254V48H180.512V38.5254H179.312ZM179.912 47.4H177.898V48.6H179.912V47.4ZM178.498 48V25.8604H177.298V48H178.498ZM177.898 26.4604H188.92V25.2604H177.898V26.4604ZM188.92 26.4604C190.577 26.4604 191.976 26.5926 193.124 26.8488L193.385 25.6776C192.126 25.3967 190.635 25.2604 188.92 25.2604V26.4604ZM193.129 26.8499C194.277 27.0959 195.178 27.4678 195.857 27.9461L196.548 26.965C195.702 26.3691 194.638 25.9461 193.38 25.6765L193.129 26.8499ZM195.865 27.9516C196.554 28.4201 197.041 28.9964 197.347 29.6819L198.443 29.1931C198.04 28.2888 197.399 27.5437 196.541 26.9595L195.865 27.9516ZM197.347 29.6819C197.66 30.3848 197.827 31.2276 197.827 32.2251H199.027C199.027 31.0957 198.838 30.08 198.443 29.1931L197.347 29.6819ZM197.827 32.2251C197.827 33.7718 197.422 34.9464 196.669 35.811L197.574 36.5991C198.561 35.4657 199.027 33.987 199.027 32.2251H197.827ZM196.671 35.8086C195.924 36.6577 194.669 37.2936 192.804 37.6458L193.027 38.8249C195.03 38.4466 196.579 37.7291 197.572 36.6016L196.671 35.8086ZM192.441 38.6026L199.998 48.3672L200.947 47.6328L193.39 37.8681L192.441 38.6026ZM200.473 47.4H197.943V48.6H200.473V47.4ZM198.424 47.6405L191.285 38.1015L190.325 38.8204L197.463 48.3595L198.424 47.6405ZM190.762 37.8625C190.469 37.8834 190.17 37.8991 189.866 37.9096L189.907 39.1089C190.226 39.0979 190.539 39.0814 190.848 39.0594L190.762 37.8625ZM189.866 37.9096C189.562 37.9201 189.246 37.9254 188.92 37.9254V39.1254C189.259 39.1254 189.588 39.1199 189.907 39.1089L189.866 37.9096ZM188.92 37.9254H179.912V39.1254H188.92V37.9254ZM196.948 32.2251C196.948 31.216 196.771 30.3392 196.369 29.6383L195.328 30.2357C195.592 30.695 195.748 31.3436 195.748 32.2251H196.948ZM196.371 29.6424C195.961 28.9147 195.305 28.379 194.457 28.0159L193.985 29.1189C194.641 29.4003 195.07 29.7777 195.326 30.2316L196.371 29.6424ZM194.457 28.0159C193.625 27.6593 192.568 27.4356 191.309 27.3251L191.204 28.5206C192.394 28.6249 193.313 28.8309 193.985 29.1189L194.457 28.0159ZM191.314 27.3257C190.075 27.205 188.561 27.1456 186.777 27.1456V28.3456C188.538 28.3456 190.01 28.4044 191.198 28.52L191.314 27.3257ZM186.777 27.1456H179.912V28.3456H186.777V27.1456ZM179.312 27.7456V36.6401H180.512V27.7456H179.312ZM179.912 37.2401H186.712V36.0401H179.912V37.2401ZM186.712 37.2401C188.494 37.2401 190.01 37.1916 191.255 37.0933L191.161 35.897C189.957 35.992 188.475 36.0401 186.712 36.0401V37.2401ZM191.26 37.0928C192.518 36.9825 193.577 36.7647 194.416 36.4222L193.962 35.3112C193.275 35.5918 192.347 35.7929 191.155 35.8974L191.26 37.0928ZM194.422 36.4194C195.273 36.0598 195.937 35.5391 196.35 34.8322L195.314 34.2264C195.062 34.6581 194.63 35.0291 193.955 35.314L194.422 36.4194ZM196.349 34.8352C196.765 34.1317 196.948 33.2462 196.948 32.2251H195.748C195.748 33.1162 195.587 33.7668 195.316 34.2234L196.349 34.8352Z" fill="#F7F7F7"/>
<path d="M266.572 48V37.2686H246.736V48H244.722V25.8604H246.736V35.3994H266.572V25.8604H268.586V48H266.572ZM277.366 48V25.8604H295.816V27.7456H279.558V35.3672H294.994V37.2363H279.558V46.1147H296.058V48H277.366ZM303.598 48V25.8604H305.612V46.1147H321.789V48H303.598ZM328.056 48V25.8604H330.07V46.1147H346.248V48H328.056Z" fill="white"/>
<path d="M266.572 48H265.972V48.6H266.572V48ZM266.572 37.2686H267.172V36.6686H266.572V37.2686ZM246.736 37.2686V36.6686H246.136V37.2686H246.736ZM246.736 48V48.6H247.336V48H246.736ZM244.722 48H244.122V48.6H244.722V48ZM244.722 25.8604V25.2604H244.122V25.8604H244.722ZM246.736 25.8604H247.336V25.2604H246.736V25.8604ZM246.736 35.3994H246.136V35.9994H246.736V35.3994ZM266.572 35.3994V35.9994H267.172V35.3994H266.572ZM266.572 25.8604V25.2604H265.972V25.8604H266.572ZM268.586 25.8604H269.186V25.2604H268.586V25.8604ZM268.586 48V48.6H269.186V48H268.586ZM267.172 48V37.2686H265.972V48H267.172ZM266.572 36.6686H246.736V37.8686H266.572V36.6686ZM246.136 37.2686V48H247.336V37.2686H246.136ZM246.736 47.4H244.722V48.6H246.736V47.4ZM245.322 48V25.8604H244.122V48H245.322ZM244.722 26.4604H246.736V25.2604H244.722V26.4604ZM246.136 25.8604V35.3994H247.336V25.8604H246.136ZM246.736 35.9994H266.572V34.7994H246.736V35.9994ZM267.172 35.3994V25.8604H265.972V35.3994H267.172ZM266.572 26.4604H268.586V25.2604H266.572V26.4604ZM267.986 25.8604V48H269.186V25.8604H267.986ZM268.586 47.4H266.572V48.6H268.586V47.4ZM277.366 48H276.766V48.6H277.366V48ZM277.366 25.8604V25.2604H276.766V25.8604H277.366ZM295.816 25.8604H296.416V25.2604H295.816V25.8604ZM295.816 27.7456V28.3456H296.416V27.7456H295.816ZM279.558 27.7456V27.1456H278.958V27.7456H279.558ZM279.558 35.3672H278.958V35.9672H279.558V35.3672ZM294.994 35.3672H295.594V34.7672H294.994V35.3672ZM294.994 37.2363V37.8363H295.594V37.2363H294.994ZM279.558 37.2363V36.6363H278.958V37.2363H279.558ZM279.558 46.1147H278.958V46.7147H279.558V46.1147ZM296.058 46.1147H296.658V45.5147H296.058V46.1147ZM296.058 48V48.6H296.658V48H296.058ZM277.966 48V25.8604H276.766V48H277.966ZM277.366 26.4604H295.816V25.2604H277.366V26.4604ZM295.216 25.8604V27.7456H296.416V25.8604H295.216ZM295.816 27.1456H279.558V28.3456H295.816V27.1456ZM278.958 27.7456V35.3672H280.158V27.7456H278.958ZM279.558 35.9672H294.994V34.7672H279.558V35.9672ZM294.394 35.3672V37.2363H295.594V35.3672H294.394ZM294.994 36.6363H279.558V37.8363H294.994V36.6363ZM278.958 37.2363V46.1147H280.158V37.2363H278.958ZM279.558 46.7147H296.058V45.5147H279.558V46.7147ZM295.458 46.1147V48H296.658V46.1147H295.458ZM296.058 47.4H277.366V48.6H296.058V47.4ZM303.598 48H302.998V48.6H303.598V48ZM303.598 25.8604V25.2604H302.998V25.8604H303.598ZM305.612 25.8604H306.212V25.2604H305.612V25.8604ZM305.612 46.1147H305.012V46.7147H305.612V46.1147ZM321.789 46.1147H322.389V45.5147H321.789V46.1147ZM321.789 48V48.6H322.389V48H321.789ZM304.198 48V25.8604H302.998V48H304.198ZM303.598 26.4604H305.612V25.2604H303.598V26.4604ZM305.012 25.8604V46.1147H306.212V25.8604H305.012ZM305.612 46.7147H321.789V45.5147H305.612V46.7147ZM321.189 46.1147V48H322.389V46.1147H321.189ZM321.789 47.4H303.598V48.6H321.789V47.4ZM328.056 48H327.456V48.6H328.056V48ZM328.056 25.8604V25.2604H327.456V25.8604H328.056ZM330.07 25.8604H330.67V25.2604H330.07V25.8604ZM330.07 46.1147H329.47V46.7147H330.07V46.1147ZM346.248 46.1147H346.848V45.5147H346.248V46.1147ZM346.248 48V48.6H346.848V48H346.248ZM328.656 48V25.8604H327.456V48H328.656ZM328.056 26.4604H330.07V25.2604H328.056V26.4604ZM329.47 25.8604V46.1147H330.67V25.8604H329.47ZM330.07 46.7147H346.248V45.5147H330.07V46.7147ZM345.648 46.1147V48H346.848V46.1147H345.648ZM346.248 47.4H328.056V48.6H346.248V47.4Z" fill="#F7F7F7"/>
<defs>
<radialGradient id="paint0_radial_951_11743" cx="0" cy="0" r="1" gradientUnits="userSpaceOnUse" gradientTransform="translate(42.2943 35.0654) scale(25.7469 25.0596)">
<stop stop-color="#FFB61A"/>
<stop offset="0.54" stop-color="#FDB51A"/>
<stop offset="0.73" stop-color="#F6B019"/>
<stop offset="0.87" stop-color="#EBA818"/>
<stop offset="0.98" stop-color="#DA9D15"/>
<stop offset="1" stop-color="#D69A15"/>
</radialGradient>
<radialGradient id="paint1_radial_951_11743" cx="0" cy="0" r="1" gradientUnits="userSpaceOnUse" gradientTransform="translate(42.294 35.0659) scale(36.0276 35.0658)">
<stop offset="0.73" stop-color="#FFEBBD"/>
<stop offset="0.8" stop-color="#B4A685" stop-opacity="0.74"/>
<stop offset="0.87" stop-color="#68604D" stop-opacity="0.47"/>
<stop offset="0.93" stop-color="#302C23" stop-opacity="0.27"/>
<stop offset="0.98" stop-color="#0D0C0A" stop-opacity="0.15"/>
<stop offset="1" stop-opacity="0.1"/>
</radialGradient>
</defs>
</svg>
