<svg width="96" height="81" viewBox="0 0 96 81" fill="none" xmlns="http://www.w3.org/2000/svg">
<g opacity="0.55">
<path opacity="0.55" d="M0.694946 77.0982C5.1967 59.0602 10.6241 46.6775 17.2952 39.2468C22.7704 33.1497 29.087 30.3108 37.1704 30.3108C41.8298 30.3108 46.6101 31.2393 51.2384 32.134C55.7599 33.0091 60.4361 33.915 64.89 33.915C71.0462 33.915 75.9418 32.1903 80.2945 28.4848C85.6178 23.9521 90.0914 16.451 93.9714 5.54834L95.3163 5.9535C90.7386 24.3235 85.1367 36.9031 78.1984 44.4266C72.5712 50.535 66.0155 53.3795 57.5972 53.3795C53.0645 53.3795 48.4305 52.5805 43.9484 51.8067C39.5958 51.0555 35.094 50.2789 30.823 50.2789C24.6162 50.2789 19.7261 51.9221 15.4298 55.456C10.1543 59.7917 5.77631 66.9917 2.03985 77.5033L0.694946 77.0982Z" fill="#242424"/>
<path opacity="0.55" d="M94.6354 5.7847C84.8469 45.0372 71.5639 52.6761 57.5972 52.6761C48.7006 52.6761 39.5339 49.5812 30.823 49.5812C19.7683 49.5812 9.43963 54.5809 1.37585 77.2726C10.9674 38.7995 23.7074 31.0142 37.162 31.0142C46.3203 31.0142 55.8134 34.6185 64.8788 34.6185C75.88 34.6185 86.2621 29.3036 94.6242 5.7847H94.6354ZM93.2989 5.31201C89.4612 16.0965 85.0551 23.4991 79.8274 27.9502C75.607 31.5404 70.8605 33.2117 64.8788 33.2117C60.4924 33.2117 55.8499 32.3113 51.3594 31.4419C46.7029 30.5415 41.8889 29.6102 37.162 29.6074C28.8619 29.6074 22.3794 32.5223 16.7634 38.777C10.0108 46.2977 4.52708 58.776 0 76.9265L2.6898 77.7397C6.39531 67.3631 10.7142 60.2503 15.8771 55.999C20.0385 52.5748 24.7878 50.9823 30.823 50.9823C35.0434 50.9823 39.306 51.7195 43.8302 52.4989C48.3545 53.2782 53.0026 54.0829 57.5972 54.0829C66.2237 54.0829 72.9341 51.1652 78.7161 44.905C85.736 37.3083 91.3913 24.6105 96 6.12514L93.3102 5.31201H93.2989Z" fill="#171717"/>
<g opacity="0.490196">
<path opacity="0.490196" d="M83.9887 29.4864C81.4931 34.7985 78.7808 39.0245 75.8293 42.232C70.7789 47.7045 65.1601 50.1439 57.6056 50.1439C53.3486 50.1439 48.8553 49.3673 44.5083 48.6189C40.0066 47.8424 35.381 47.0433 30.8314 47.0433C23.834 47.0433 18.2884 48.9228 13.3871 52.9519C12.7681 53.4602 12.1604 54.0041 11.5639 54.5837C19.7177 36.5232 28.89 33.5465 37.162 33.5465C41.509 33.5465 45.9292 34.3905 50.6082 35.3106C55.2872 36.2306 60.1153 37.1507 64.8788 37.1507C71.7524 37.1507 77.4781 35.1221 82.3793 30.9608C82.9214 30.4993 83.4541 30.0116 83.9775 29.4977L83.9887 29.4864ZM94.6241 5.79593C86.2649 29.3036 75.8912 34.6184 64.89 34.6184C55.8246 34.6184 46.3203 31.017 37.1733 31.0142C23.7074 31.0142 10.9674 38.7995 1.37585 77.267C9.45088 54.5753 19.7683 49.5755 30.823 49.5755C39.5451 49.5755 48.7006 52.6705 57.5972 52.6705C71.5583 52.6705 84.8469 45.0316 94.6354 5.77905L94.6241 5.79593Z" fill="#CCAD6E"/>
</g>
<g opacity="0.490196">
<path opacity="0.490196" d="M36.8807 33.4902C41.4837 33.4902 46.0389 35.0996 50.8671 36.8018C55.7599 38.5266 60.8216 40.3132 66.0324 40.3132C70.6157 40.3132 74.7545 38.9373 78.6317 36.1097C76.8314 38.89 74.7332 41.4656 72.3742 43.7908C67.9906 47.9971 63.5255 49.9554 58.3231 49.9554C53.7004 49.9554 49.1367 48.4501 44.3057 46.8604C39.4748 45.2708 34.4835 43.6192 29.3937 43.6192C24.7878 43.6192 20.6715 44.9669 16.8309 47.7383C18.9524 44.4464 21.102 41.7453 23.3022 39.607C27.5733 35.4372 31.8893 33.4958 36.8891 33.4958L36.8807 33.4902ZM90.1421 18.1702C81.7716 33.8729 73.8373 38.2368 66.0436 38.2368C56.2945 38.2368 46.7733 31.411 36.8807 31.411C27.0781 31.411 16.9266 38.1242 5.85791 64.8928C13.8739 49.8569 21.6506 45.6984 29.3937 45.6984C38.9599 45.6984 48.4671 52.0375 58.3118 52.0375C68.4408 52.0375 78.8933 45.3467 90.1309 18.1786L90.1421 18.1702Z" fill="#CCAD6E"/>
</g>
<g opacity="0.44">
<path opacity="0.44" d="M37.7895 33.4845C42.3363 33.4845 46.5116 35.6988 50.9121 38.0453C55.4504 40.4538 60.1295 42.9466 65.4021 42.9466C68.2291 42.9309 71.0096 42.2258 73.5025 40.8927C68.0329 46.9194 62.8587 49.8005 57.676 49.8005C53.0645 49.8005 48.8329 47.6594 44.3536 45.3944C39.8322 43.107 35.1531 40.7407 29.9846 40.7407C27.1953 40.7497 24.4497 41.4342 21.9827 42.7356C27.4973 36.4725 32.6744 33.4845 37.7895 33.4845ZM85.027 27.7532C77.3937 38.0172 71.0941 41.2584 65.4021 41.2584C55.6643 41.2584 47.6765 31.7963 37.7923 31.7963C30.4235 31.7963 21.9967 37.0352 10.9871 55.3293C18.2575 45.5464 24.3742 42.457 29.9846 42.457C39.593 42.457 47.7102 51.5168 57.676 51.5168C65.253 51.5168 73.8852 46.2638 85.027 27.7532Z" fill="#CCAD6E"/>
</g>
<g opacity="0.39">
<path opacity="0.39" d="M39.0696 33.6983C43.4616 33.6983 47.0124 36.2924 50.7686 39.0441C54.671 41.8971 58.7085 44.8458 63.8743 44.8458C65.548 44.8326 67.2073 44.5348 68.7812 43.9651C67.8076 44.7771 66.7924 45.5378 65.7397 46.2441C62.4478 48.4303 59.4485 49.4938 56.5646 49.4938C52.0881 49.4938 48.4473 46.9447 44.5927 44.2465C40.6677 41.4948 36.5993 38.6531 31.5348 38.6531C29.9044 38.6643 28.2875 38.9496 26.7517 39.4971C27.8262 38.5733 28.9535 37.7128 30.128 36.9199C33.3608 34.7506 36.2926 33.6983 39.0893 33.6983H39.0696ZM39.0893 32.2915C33.4115 32.2915 26.3662 36.1489 16.3723 48.4022C22.5369 42.1897 27.3876 40.0402 31.5657 40.0402C40.9238 40.0402 46.8577 50.8753 56.6068 50.8753C62.4309 50.8753 69.6112 47.0038 79.7008 34.6324C73.2042 41.1768 68.165 43.4362 63.9165 43.4362C54.4487 43.4362 48.7596 32.2915 39.1118 32.2915H39.0893Z" fill="#CCAD6E"/>
</g>
<g opacity="0.34">
<path opacity="0.34" d="M40.2992 32.8179V33.963C44.6349 33.963 47.5076 36.8244 50.5519 39.8547C53.7425 43.0284 57.0401 46.326 62.1693 46.326C62.9615 46.3234 63.7518 46.2471 64.5299 46.0981C61.0945 48.1548 58.0895 49.1677 55.456 49.1677C51.0218 49.1677 48.0478 46.326 44.8994 43.3182C41.6638 40.2148 38.3296 37.0383 33.2989 37.0383C32.5373 37.0405 31.7774 37.1111 31.0284 37.2493C34.5735 35.0575 37.6431 33.9771 40.3132 33.9771V32.8179H40.2992ZM40.3132 32.8179C35.8903 32.8179 30.052 35.457 21.5043 43.1775C26.4309 39.5339 30.2096 38.1693 33.3214 38.1693C42.5697 38.1693 45.8054 50.2988 55.4813 50.2988C60.0056 50.2988 65.931 47.6512 74.5406 39.8884C69.3327 43.7431 65.3908 45.1808 62.1946 45.1808C52.8309 45.1808 49.8879 32.8348 40.3245 32.8319L40.3132 32.8179Z" fill="#CCAD6E"/>
</g>
<g opacity="0.29">
<path opacity="0.29" d="M41.3627 33.448V34.3877C45.7125 34.3877 47.924 37.342 50.2678 40.4707C52.7437 43.7739 55.3013 47.1896 60.4249 47.1896H60.8807C58.4553 48.2025 56.3339 48.7005 54.4882 48.7005C50.0342 48.7005 47.7215 45.7406 45.2736 42.6091C42.7414 39.3791 40.136 36.0365 35.1278 36.0365H34.7283C37.2605 34.9336 39.4664 34.3906 41.3599 34.3906V33.4508L41.3627 33.448ZM41.3599 33.4508C37.8823 33.4508 33.1583 35.139 26.2931 39.7336C29.9705 37.7641 32.8206 36.9706 35.125 36.9706C44.3451 36.9706 44.7869 49.6318 54.4854 49.6318C58.0305 49.6318 62.808 47.9437 69.7069 43.3237C65.8045 45.417 62.8108 46.2527 60.4221 46.2527C51.0612 46.2527 50.943 33.4508 41.3599 33.448V33.4508Z" fill="#CCAD6E"/>
</g>
<g opacity="0.24">
<path opacity="0.24" d="M42.0999 34.0501V34.821C46.6973 34.821 48.2898 37.8034 49.978 40.9603C51.5536 43.9061 53.3205 47.2149 57.7491 47.7129C56.4721 48.0496 55.1588 48.2301 53.8382 48.2503C49.1367 48.2503 47.4514 45.2426 45.6788 42.0604C44.061 39.1764 42.2462 35.938 37.9442 35.4259C39.3026 35.0465 40.7038 34.8413 42.114 34.8154V34.0444L42.0999 34.0501ZM42.114 34.0444C39.4073 34.0444 35.7552 34.9842 30.6514 37.3729C33.1161 36.5007 35.1025 36.1265 36.7344 36.1265C46.34 36.1265 43.6896 49.0184 53.8495 49.0184C56.5984 49.0184 60.2786 48.0787 65.3852 45.6843C62.7602 46.6128 60.6584 47.0095 58.9505 47.0095C49.162 47.0095 52.1557 34.0444 42.1055 34.0444H42.114Z" fill="#CCAD6E"/>
</g>
<g opacity="0.19">
<path opacity="0.19" d="M42.4403 35.2938C47.5048 35.2938 48.5064 38.0793 49.6741 41.3037C50.611 43.8922 51.6436 46.7649 55.1831 47.6934C54.641 47.7501 54.0963 47.7792 53.5512 47.7806C48.3911 47.7806 47.2516 44.8263 46.0445 41.6948C45.0654 39.1625 43.9765 36.332 40.5468 35.412C41.1752 35.3363 41.8074 35.2969 42.4403 35.2938ZM42.4403 34.6636C40.4173 34.6636 37.8091 35.0997 34.399 36.1323C35.5781 35.8831 36.7786 35.7493 37.9836 35.7327C48.3207 35.7327 42.536 48.4136 53.5512 48.4136C55.5939 48.4136 58.2134 47.9775 61.6234 46.9421C60.3669 47.2095 59.0871 47.3527 57.8026 47.3698C47.2066 47.3698 53.3571 34.6636 42.4403 34.6636Z" fill="#CCAD6E"/>
</g>
<g opacity="0.09">
<path opacity="0.09" d="M42.7161 35.6313C48.2673 35.8395 48.7878 38.4983 49.3899 41.5539C49.826 43.7879 50.3072 46.2329 53.0645 47.4259C47.6427 47.1445 47.0378 44.3534 46.3991 41.4188C45.9208 39.2186 45.3946 36.8045 42.7161 35.6313ZM41.9958 35.1023C40.5433 35.1159 39.0935 35.2315 37.6572 35.4484C37.9583 35.4343 38.2481 35.4287 38.5238 35.4287C50.8333 35.4287 40.7944 47.9689 54.0352 47.9689C55.4839 47.9554 56.9298 47.8407 58.3625 47.6256C58.0389 47.6397 57.7266 47.6453 57.4284 47.6453C44.6856 47.6453 55.1775 35.1023 41.9958 35.1023Z" fill="#CCAD6E"/>
</g>
<g opacity="0.04">
<path opacity="0.04" d="M44.407 36.1238C46.0333 36.4248 47.1953 36.9397 47.9212 37.6741C48.9791 38.7432 49.0466 40.1894 49.1282 41.7172C49.2183 43.5882 49.3196 45.6309 51.4326 46.9224C47.0518 46.0417 46.8886 43.7064 46.7282 41.2586C46.5988 39.4129 46.4469 37.3983 44.4183 36.1294L44.407 36.1238ZM40.3414 35.3838C52.4849 36.6161 39.1146 47.6483 55.7036 47.7074C43.0706 46.4244 56.9922 35.4429 40.3414 35.3838Z" fill="#CCAD6E"/>
</g>
</g>
<path d="M47.457 69.316C63.4125 69.316 76.347 56.3814 76.347 40.4259C76.347 24.4704 63.4125 11.5359 47.457 11.5359C31.5015 11.5359 18.567 24.4704 18.567 40.4259C18.567 56.3814 31.5015 69.316 47.457 69.316Z" fill="url(#paint0_radial_573_16035)"/>
<path d="M47.457 11.5358C53.1714 11.5358 58.7574 13.2305 63.5086 16.4055C68.2598 19.5804 71.9627 24.0931 74.149 29.3727C76.3353 34.6523 76.9067 40.4617 75.7911 46.0662C74.6754 51.6706 71.9228 56.8183 67.8814 60.8582C63.8399 64.8981 58.6911 67.6487 53.0863 68.7622C47.4814 69.8756 41.6722 69.3019 36.3935 67.1135C31.1147 64.9252 26.6035 61.2205 23.4303 56.4681C20.2572 51.7157 18.5647 46.129 18.567 40.4146C18.5699 32.7544 21.615 25.409 27.0326 19.9935C32.4502 14.578 39.7968 11.5358 47.457 11.5358ZM47.457 6.77649e-05C37.4541 0.00833871 27.8108 3.73182 20.398 10.4481C12.9852 17.1645 8.33141 26.3948 7.33943 36.3484C6.34745 46.302 9.08802 56.2693 15.0295 64.3165C20.9709 72.3637 29.6896 77.9172 39.4942 79.8995C49.2987 81.8817 59.4901 80.1515 68.091 75.0445C76.692 69.9375 83.0895 61.8178 86.0422 52.2606C88.9949 42.7034 88.2924 32.3902 84.0711 23.3216C79.8497 14.2531 72.4103 7.07582 63.1963 3.18225C58.2176 1.0725 52.8642 -0.00986623 47.457 6.77649e-05Z" fill="url(#paint1_radial_573_16035)"/>
<path d="M1.992 77.4218C34.7507 74.2171 35.8677 59.0434 37.0494 42.9749C37.7444 33.5325 38.4562 23.7693 45.8532 16.4146C49.8232 12.4755 55.321 9.56347 62.6588 7.55456C70.8351 5.30368 81.0767 4.22607 93.9658 4.22607L94.0361 5.63287C59.5836 8.99794 58.7648 24.3771 57.901 40.6622C56.905 59.426 55.8752 78.8258 2.04546 78.8258L1.992 77.4218Z" fill="#242424"/>
<path d="M93.9657 4.92952C18.5669 12.304 101.399 78.1169 2.04545 78.1169C74.5322 71.0266 -4.98855 4.92389 93.9657 4.92389V4.92952ZM93.9657 3.51709C81.0232 3.51709 70.7113 4.61439 62.4731 6.8709C55.0143 8.91357 49.418 11.8707 45.358 15.911C37.781 23.4486 37.0522 33.3553 36.3545 42.9215C35.7636 50.9403 35.2065 58.5145 30.8314 64.5497C28.5017 67.7656 25.2717 70.281 20.9585 72.2392C16.0093 74.4901 9.78003 75.9504 1.91321 76.7213L2.05107 79.5349C14.9486 79.5349 25.1789 78.4601 33.3242 76.2514C40.7127 74.2453 46.2302 71.3417 50.1889 67.3689C57.5887 59.9438 58.1064 50.1637 58.61 40.7072C59.0405 32.6041 59.4541 24.9511 63.9024 18.8174C66.2855 15.5424 69.6309 12.9736 74.1327 10.9647C79.2281 8.6913 85.9498 7.13256 94.1092 6.33631L93.9714 3.52272L93.9657 3.51709Z" fill="#171717"/>
<g opacity="0.490196">
<path opacity="0.490196" d="M68.3451 9.54939C65.365 11.3368 62.7703 13.6992 60.7118 16.499C55.5686 23.5752 55.1128 32.1763 54.671 40.4933C54.1871 49.615 53.7285 58.219 47.3922 64.5834C43.0593 68.9304 36.1632 71.9663 26.5294 73.7332C29.4536 71.9589 31.9981 69.6238 34.0164 66.8624C39.0471 59.9241 39.6717 51.427 40.2767 43.2141C40.9576 33.9545 41.6019 25.2071 48.135 18.7077C52.4455 14.4169 59.1306 11.3923 68.3451 9.54939ZM93.9658 4.92945C-4.99415 4.92945 74.5322 71.0322 2.04547 78.1168C101.399 78.1168 18.5669 12.2983 93.9658 4.92383V4.92945Z" fill="#CCAD6E"/>
</g>
<g opacity="0.490196">
<path opacity="0.490196" d="M60.6415 13.1227C58.4421 14.9326 56.6249 17.1621 55.2956 19.6812C51.9784 26.0399 52.648 33.0711 53.2952 39.8716C54.0042 47.3248 54.671 54.3672 50.3015 60.2871C47.3134 64.3386 42.0858 67.6334 34.4862 70.2303C36.6423 68.4392 38.4236 66.2401 39.728 63.759C42.9692 57.5241 42.4515 50.5576 41.9479 43.8219C41.3852 36.2251 40.8506 29.0617 45.3636 23.0012C48.3404 19.0003 53.3964 15.7281 60.6499 13.1311L60.6415 13.1227ZM80.8712 6.29126C0.599257 18.2462 73.0832 62.2538 15.1484 76.7607C95.7299 64.7607 20.6011 21.3806 80.8628 6.29407L80.8712 6.29126Z" fill="#CCAD6E"/>
</g>
<g opacity="0.44">
<path opacity="0.44" d="M54.7807 16.9604C53.2127 18.6952 52.0057 20.7248 51.23 22.9309C49.3195 28.4934 50.7207 34.1121 52.074 39.548C53.5596 45.5072 54.9636 51.1344 52.1444 56.469C50.2143 60.1267 46.3793 63.427 40.5355 66.4629C42.0656 64.7464 43.2408 62.744 43.9934 60.5712C45.8616 55.1185 44.5871 49.5335 43.3575 44.1342C41.9704 38.0483 40.6621 32.3002 43.5798 26.8305C45.5071 23.2235 49.207 19.9513 54.7695 16.9604H54.7807ZM70.3287 8.94165C6.71039 28.4427 70.8633 55.2676 25.66 74.1103C89.5287 54.5304 23.3106 28.5299 70.3287 8.94165Z" fill="#CCAD6E"/>
</g>
<g opacity="0.39">
<path opacity="0.39" d="M50.625 20.8152C49.5686 22.4066 48.8363 24.1907 48.4698 26.0654C47.5638 30.8035 49.3561 35.2011 51.0865 39.4553C52.9857 44.1174 54.7807 48.5235 53.1123 53.18C51.9728 56.3622 49.252 59.4909 44.874 62.6281C45.9023 61.0577 46.6152 59.3022 46.973 57.4595C47.8536 52.8171 46.1739 48.4307 44.5449 44.1906C42.7132 39.4075 40.98 34.9057 42.7132 30.1226C43.8555 26.977 46.4694 23.8961 50.625 20.8377V20.8152ZM62.3437 12.501C12.965 35.7104 68.1678 50.0204 33.6675 70.5737C83.2347 47.249 26.4703 33.8591 62.3437 12.4785V12.501Z" fill="#CCAD6E"/>
</g>
<g opacity="0.34">
<path opacity="0.34" d="M47.5723 24.4136C46.9144 25.8325 46.5416 27.3668 46.475 28.9294C46.3287 32.8684 48.3263 36.2251 50.2593 39.4579C52.3779 43.0002 54.3784 46.3484 53.6047 50.3324C53.0757 53.0504 51.2581 55.9259 48.0984 59.0124C48.7401 57.6125 49.1005 56.1001 49.1592 54.5613C49.297 50.6898 47.3894 47.3444 45.5437 44.1088C43.4644 40.4511 41.5006 37.0185 42.3137 32.9303C42.8483 30.2377 44.5843 27.4157 47.5723 24.4136ZM56.0131 16.2007C18.8736 41.1601 65.3936 45.9095 39.9756 66.8454C77.2558 41.7875 29.5653 37.9779 56.0131 16.2007Z" fill="#CCAD6E"/>
</g>
<g opacity="0.29">
<path opacity="0.29" d="M45.6169 27.6942C45.2505 28.9229 45.13 30.2117 45.2623 31.487C45.6112 34.7114 47.6286 37.1873 49.5784 39.5817C51.7167 42.2068 53.7369 44.6884 53.5793 48.0225C53.4724 50.2903 52.3385 52.8394 50.1383 55.7177C50.4921 54.5059 50.6058 53.2366 50.4731 51.9812C50.1271 48.8216 48.1829 46.3315 46.3034 43.9259C44.1847 41.2136 42.1843 38.6504 42.3643 35.2375C42.4797 32.9866 43.5545 30.4966 45.6225 27.7055L45.6169 27.6942ZM51.531 20.0413C24.3517 44.6856 62.656 43.034 44.5139 63.0359C71.8059 38.2762 32.6602 40.8422 51.531 20.0413Z" fill="#CCAD6E"/>
</g>
<g opacity="0.24">
<path opacity="0.24" d="M44.3676 30.567C43.7683 35.0013 46.5172 37.4857 49.0326 39.7591C51.0921 41.6217 53.0363 43.3802 53.3233 46.0925C53.5174 47.9438 52.9153 50.1497 51.4917 52.7579C51.6271 51.7308 51.5612 50.6872 51.2975 49.6854C50.6251 47.1701 48.74 45.3947 46.9167 43.6784C44.86 41.7426 42.9214 39.9166 42.6373 37.1283C42.4516 35.2798 43.0199 33.1077 44.3676 30.567ZM48.1688 23.6709C29.2051 47.0238 60.045 40.9239 47.8284 59.4036C66.868 35.9551 35.4485 42.8934 48.1688 23.6709Z" fill="#CCAD6E"/>
</g>
<g opacity="0.19">
<path opacity="0.19" d="M43.7655 33.0459C43.7992 36.7036 46.3202 38.4115 48.6274 39.9617C50.5153 41.2307 52.2991 42.4321 52.8478 44.6014C53.2248 46.0898 52.9884 47.9777 52.1219 50.268C52.074 46.6975 49.6149 44.97 47.3641 43.3887C45.4705 42.0579 43.6811 40.803 43.1268 38.5718C42.7582 37.0947 42.9664 35.2659 43.7627 33.0459H43.7655ZM46.0417 27.0051C33.3805 48.1775 57.6984 39.6185 49.9441 56.0358C62.656 34.7875 37.9779 44.0724 46.0445 27.0051H46.0417Z" fill="#CCAD6E"/>
</g>
<g opacity="0.09">
<path opacity="0.09" d="M43.501 35.1702C43.985 38.1498 46.2415 39.2077 48.3095 40.1756C49.9976 40.969 51.5958 41.7174 52.3132 43.4056C52.8084 44.5648 52.8506 46.1151 52.4398 48.0902C51.9531 45.2006 49.7416 44.1118 47.7214 43.113C45.0288 41.7849 42.4572 40.516 43.501 35.1702ZM44.5899 30.0044C36.9932 48.7514 55.622 38.7631 51.3988 53.0393C59.0265 34.2164 40.1979 44.8546 44.5899 30.0044Z" fill="#CCAD6E"/>
</g>
<g opacity="0.04">
<path opacity="0.04" d="M43.5995 36.8977C44.3423 39.2584 46.3006 39.8492 48.1013 40.3922C49.5643 40.8368 50.9486 41.2532 51.7308 42.539C52.2682 43.4225 52.4848 44.6746 52.3864 46.3261C51.6492 44.0415 49.7275 43.4169 47.969 42.8457C45.6281 42.0832 43.3913 41.3573 43.6079 36.8977H43.5995ZM43.8893 32.5732C39.9503 48.6839 53.8747 38.3805 52.1303 50.4621C56.1031 34.2895 42.0773 45.1444 43.8893 32.5732Z" fill="#CCAD6E"/>
</g>
<defs>
<radialGradient id="paint0_radial_573_16035" cx="0" cy="0" r="1" gradientUnits="userSpaceOnUse" gradientTransform="translate(47.457 40.4259) scale(28.89)">
<stop stop-color="#FFB61A"/>
<stop offset="0.54" stop-color="#FDB51A"/>
<stop offset="0.73" stop-color="#F6B019"/>
<stop offset="0.87" stop-color="#EBA818"/>
<stop offset="0.98" stop-color="#DA9D15"/>
<stop offset="1" stop-color="#D69A15"/>
</radialGradient>
<radialGradient id="paint1_radial_573_16035" cx="0" cy="0" r="1" gradientUnits="userSpaceOnUse" gradientTransform="translate(47.457 40.4259) scale(40.4258)">
<stop offset="0.73" stop-color="#FFEBBD"/>
<stop offset="0.8" stop-color="#B4A685" stop-opacity="0.74"/>
<stop offset="0.87" stop-color="#68604D" stop-opacity="0.47"/>
<stop offset="0.93" stop-color="#302C23" stop-opacity="0.27"/>
<stop offset="0.98" stop-color="#0D0C0A" stop-opacity="0.15"/>
<stop offset="1" stop-opacity="0.1"/>
</radialGradient>
</defs>
</svg>
