<svg xmlns="http://www.w3.org/2000/svg" xmlns:xlink="http://www.w3.org/1999/xlink" viewBox="0 0 359.69 359.36"><defs><style>.e1c69314-ec10-4117-86a7-0dd18dc74735{opacity:0.55;}.acf4c88b-e420-448d-a335-a2ebbd2b0008{fill:#242424;}.a3ad81cd-53a7-4489-8cf9-dd0276653520{fill:#171717;}.bc5598cd-50a1-482a-9c93-43704e2bc41f{opacity:0.49;}.ab5f5cac-3b7f-4509-b5ea-9a0e1760d539{fill:#ccad6e;}.aed7e3c5-e91a-496e-b339-c327dd0a3c85{opacity:0.44;}.fed44a77-5ef8-4d6b-bd9f-158af860700c{opacity:0.39;}.a2b784e7-28b3-4492-ad4c-10d8ad2792a2{opacity:0.34;}.ba778b8e-0261-4b85-a182-23012ad862e6{opacity:0.29;}.b8aa2912-d38a-4052-81d2-0352879d1a5f{opacity:0.24;}.bb9aad70-8c49-4400-9ecb-c6b6404348f4{opacity:0.19;}.e71cc7f3-333b-4d81-8578-610493d623b8{opacity:0.09;}.a4aa7209-a05b-41ba-addc-13a68c9f811b{opacity:0.04;}.b5c8ad10-6c46-4994-bc33-686a6d10b167{fill:url(#b358e162-e56d-4025-9f5e-34b687e58e13);}.b9d5ff3b-40d7-4bc4-a6be-11055910b664{fill:url(#aaa5a6eb-c0ee-4c79-a4d1-2434a56ae976);}</style><radialGradient id="b358e162-e56d-4025-9f5e-34b687e58e13" cx="182.04" cy="177.24" r="102.68" gradientUnits="userSpaceOnUse"><stop offset="0" stop-color="#ffb61a"/><stop offset="0.54" stop-color="#fdb51a"/><stop offset="0.73" stop-color="#f6b019"/><stop offset="0.87" stop-color="#eba818"/><stop offset="0.98" stop-color="#da9d15"/><stop offset="1" stop-color="#d69a15"/></radialGradient><radialGradient id="aaa5a6eb-c0ee-4c79-a4d1-2434a56ae976" cx="182.04" cy="177.24" r="143.68" gradientUnits="userSpaceOnUse"><stop offset="0.73" stop-color="#ffebbd"/><stop offset="0.8" stop-color="#b4a685" stop-opacity="0.74"/><stop offset="0.87" stop-color="#68604d" stop-opacity="0.47"/><stop offset="0.93" stop-color="#302c23" stop-opacity="0.27"/><stop offset="0.98" stop-color="#0d0c0a" stop-opacity="0.15"/><stop offset="1" stop-opacity="0.1"/></radialGradient></defs><g id="a3c9844e-708a-4412-ba93-45cd397969fb" data-name="Layer 4"><rect x="-222.55" y="-121.79" width="800" height="600"/></g><g id="a5578652-3b82-42ee-bea1-75f0867ebbcf" data-name="Layer 11" class="e1c69314-ec10-4117-86a7-0dd18dc74735"><path class="acf4c88b-e420-448d-a335-a2ebbd2b0008" d="M15.84,307.59c16-64.12,35.29-108.12,59-134.54,19.46-21.66,41.91-31.75,70.64-31.75,16.56,0,33.55,3.29,50,6.47,16.07,3.12,32.69,6.34,48.52,6.34,21.88,0,39.28-6.14,54.75-19.3C317.67,118.7,333.57,92,347.36,53.29l4.78,1.44C335.86,120,316,164.75,291.3,191.47c-20,21.71-43.3,31.82-73.22,31.82-16.11,0-32.58-2.85-48.51-5.6-15.47-2.67-31.47-5.43-46.65-5.43-22.06,0-39.44,5.85-54.71,18.4-18.75,15.42-34.31,41-47.59,78.37Z"/><path class="a3ad81cd-53a7-4489-8cf9-dd0276653520" d="M349.72,54.12c-34.79,139.52-82,166.67-131.64,166.67-31.62,0-64.2-11-95.16-11-39.29,0-76,17.78-104.66,98.43C52.35,171.46,97.63,143.8,145.49,143.8c32.55,0,66.29,12.81,98.51,12.81,39.1,0,76-18.89,105.72-102.49M345,52.45c-13.64,38.32-29.3,64.64-47.88,80.46-15,12.75-31.87,18.7-53.13,18.7-15.59,0-32.1-3.2-48.06-6.29-16.54-3.2-33.65-6.52-50.45-6.52C116,138.8,93,149.15,73,171.38,49,198.11,29.5,242.47,13.41,307L23,309.87C36.1,273,51.41,247.71,69.79,232.6c14.8-12.17,31.68-17.84,53.13-17.84,15,0,30.15,2.62,46.22,5.4s32.61,5.63,48.94,5.63c30.66,0,54.51-10.37,75-32.62,25-27,45.06-72.13,61.44-137.84L345,52.45Z"/><g class="bc5598cd-50a1-482a-9c93-43704e2bc41f"><path class="ab5f5cac-3b7f-4509-b5ea-9a0e1760d539" d="M311.88,138.37c-8.87,18.87-18.51,33.9-29,45.3-18,19.44-37.93,28.12-64.77,28.12-15.13,0-31.1-2.76-46.55-5.43-15.95-2.75-32.44-5.6-48.61-5.6-24.87,0-44.58,6.68-62,21q-3.3,2.72-6.48,5.81C83.48,163.37,116,152.8,145.49,152.8c15.45,0,31.16,3,47.79,6.26s33.79,6.55,50.72,6.55c24.43,0,44.78-7.21,62.2-22,1.92-1.64,3.82-3.37,5.68-5.2m37.84-84.25C320,137.72,283.1,156.61,244,156.61c-32.22,0-66-12.81-98.51-12.81-47.86,0-93.14,27.66-127.23,164.39,28.7-80.65,65.37-98.43,104.66-98.43,31,0,63.54,11,95.16,11,49.62,0,96.85-27.15,131.64-166.67Z"/></g><g id="b12acaa8-4858-4390-9247-511c5a793f31" data-name="82pct" class="bc5598cd-50a1-482a-9c93-43704e2bc41f"><path class="ab5f5cac-3b7f-4509-b5ea-9a0e1760d539" d="M144.49,152.6c16.35,0,32.55,5.71,49.7,11.76,17.4,6.14,35.39,12.48,53.91,12.48,16.29,0,31-4.89,44.78-14.94a161.54,161.54,0,0,1-22.28,27.3c-15.58,15-31.45,21.91-49.94,21.91-16.44,0-32.65-5.35-49.82-11s-34.91-11.51-53-11.51c-16.37,0-31,4.79-44.65,14.63a165.62,165.62,0,0,1,23-28.89c15.19-14.82,30.53-21.72,48.3-21.72M333.75,98.14C304,154,275.8,169.46,248.1,169.46c-34.63,0-68.49-24.24-103.61-24.24-34.84,0-70.92,23.85-110.26,119C62.71,210.73,90.36,196,117.88,196c34,0,67.79,22.53,102.78,22.53,36,0,73.15-23.79,113.09-120.35Z"/></g><g id="fe4b83ee-5a59-402a-979c-31cfe96f7dec" data-name="82pct" class="aed7e3c5-e91a-496e-b339-c327dd0a3c85"><path class="ab5f5cac-3b7f-4509-b5ea-9a0e1760d539" d="M147.68,152.58c16.15,0,31,7.87,46.64,16.21,16.1,8.56,32.76,17.42,51.5,17.42a61.78,61.78,0,0,0,28.79-7.3c-19.44,21.42-37.83,31.65-56.25,31.65-16.39,0-31.43-7.6-47.35-15.66-16.08-8.13-32.7-16.54-51.07-16.54a61.5,61.5,0,0,0-28.44,7.09c19.6-22.25,37.95-32.88,56.18-32.87m167.89-20.43c-27.13,36.49-49.52,48-69.75,48-34.61,0-63-33.63-98.14-33.64-26.18,0-56.14,18.63-95.27,83.64,25.85-34.76,47.59-45.75,67.53-45.75,34.15,0,63.05,32.21,98.42,32.21,26.93,0,57.61-18.67,97.21-84.47Z"/></g><g id="bdb4ee27-80c4-46e5-912a-2a694f7507d7" data-name="82pct" class="fed44a77-5ef8-4d6b-bd9f-158af860700c"><path class="ab5f5cac-3b7f-4509-b5ea-9a0e1760d539" d="M152.23,153.33c15.61,0,28.22,9.22,41.58,19,13.87,10.13,28.21,20.62,46.58,20.62a52.23,52.23,0,0,0,17.44-3.14A130,130,0,0,1,247,197.91c-11.7,7.77-22.36,11.54-32.61,11.54-15.92,0-28.85-9.06-42.55-18.64-14-9.77-28.38-19.87-46.41-19.87a51.69,51.69,0,0,0-17,3,129.87,129.87,0,0,1,12-9.16c11.49-7.71,21.91-11.46,31.85-11.46m0-5c-20.18,0-45.22,13.71-80.74,57.26,21.91-22.08,39.15-29.72,54-29.72,33.26,0,54.34,38.5,89,38.5,20.7,0,46.22-13.75,82.08-57.72C273.4,180,255.54,188,240.39,188c-33.65,0-53.87-39.6-88.16-39.6Z"/></g><g id="aba1c6b1-41af-4069-9c70-92ab048594f1" data-name="82pct" class="a2b784e7-28b3-4492-ad4c-10d8ad2792a2"><path class="ab5f5cac-3b7f-4509-b5ea-9a0e1760d539" d="M156.6,150.21v4.07c15.41,0,25.62,10.17,36.44,20.93,11.33,11.29,23.06,22.95,41.29,22.95a45.41,45.41,0,0,0,8.39-.8c-12.21,7.31-22.89,10.91-32.25,10.91-15.76,0-26.33-10.1-37.52-20.8-11.48-11-23.36-22.32-41.24-22.32a44.36,44.36,0,0,0-8.07.76c12.6-7.8,23.51-11.63,32.95-11.63v-4.07m0,0c-15.72,0-36.47,9.38-66.85,36.82,17.5-12.95,30.94-17.81,42-17.81,32.87,0,44.37,43.12,78.76,43.12,16.07,0,37.14-9.42,67.74-37.05-18.51,13.69-32.53,18.8-43.88,18.8-33.28,0-43.74-43.87-77.73-43.88Z"/></g><g id="be78f695-ffe7-4dab-9a0b-2cee800f8b66" data-name="82pct" class="ba778b8e-0261-4b85-a182-23012ad862e6"><path class="ab5f5cac-3b7f-4509-b5ea-9a0e1760d539" d="M160.38,152.45v3.34c15.45,0,23.32,10.5,31.65,21.61,8.8,11.75,17.89,23.89,36.1,23.89q.81,0,1.62,0c-8.62,3.59-16.16,5.37-22.72,5.37-15.83,0-24-10.52-32.75-21.65-9-11.49-18.26-23.36-36.06-23.36-.47,0-.94,0-1.42,0,9-3.92,16.84-5.85,23.57-5.85v-3.34m0,0c-12.37,0-29.15,6-53.55,22.32,13.07-7,23.2-9.82,31.39-9.82,32.77,0,34.34,45,68.81,45,12.59,0,29.58-6,54.1-22.42C247.27,195,236.63,198,228.14,198c-33.27,0-33.7-45.49-67.75-45.5Z"/></g><g id="acacb5f0-1b29-47cf-94ad-aae7f24f29f2" data-name="82pct" class="b8aa2912-d38a-4052-81d2-0352879d1a5f"><path class="ab5f5cac-3b7f-4509-b5ea-9a0e1760d539" d="M163,154.59v2.73c16.34,0,22,10.6,28,21.83,5.6,10.47,11.88,22.23,27.62,24a58.48,58.48,0,0,1-13.9,1.9c-16.71,0-22.7-10.68-29-22-5.75-10.26-12.2-21.77-27.49-23.58A58.73,58.73,0,0,1,163,157.32v-2.73m0,0c-9.62,0-22.6,3.34-40.74,11.82,8.76-3.09,15.82-4.42,21.62-4.42,34.14,0,24.71,45.82,60.83,45.82,9.77,0,22.85-3.35,41-11.85-9.33,3.3-16.8,4.71-22.87,4.71-34.79,0-24.15-46.08-59.87-46.08Z"/></g><g id="ab129adb-942c-4ede-aed1-434ccd55a62e" data-name="82pct" class="bb9aad70-8c49-4400-9ecb-c6b6404348f4"><path class="ab5f5cac-3b7f-4509-b5ea-9a0e1760d539" d="M164.21,159c18,0,21.56,9.89,25.71,21.35,3.33,9.2,7,19.41,19.58,22.72-2.05.2-4,.31-5.8.31-18.34,0-22.39-10.51-26.68-21.63-3.48-9-7.35-19.07-19.54-22.34a60.85,60.85,0,0,1,6.73-.41m0-2.25c-7.19,0-16.46,1.55-28.59,5.23a66.1,66.1,0,0,1,12.75-1.42c36.74,0,16.18,45.06,55.33,45.06,7.26,0,16.57-1.55,28.68-5.22a70.33,70.33,0,0,1-13.57,1.52c-37.67,0-15.8-45.17-54.6-45.17Z"/></g><g id="eb950ec0-9e06-4ea7-b8d1-31edb353e399" data-name="82pct" class="e71cc7f3-333b-4d81-8578-610493d623b8"><path class="ab5f5cac-3b7f-4509-b5ea-9a0e1760d539" d="M165.19,160.22c19.73.74,21.58,10.18,23.71,21.05,1.56,7.93,3.27,16.63,13.07,20.87-19.27-1-21.42-10.92-23.69-21.36-1.7-7.82-3.57-16.39-13.09-20.56m-2.56-1.89a111.73,111.73,0,0,0-15.42,1.23c1.07,0,2.1-.06,3.08-.06,43.75,0,8.07,44.57,55.13,44.57a110.74,110.74,0,0,0,15.38-1.23c-1.15,0-2.26.08-3.32.08-45.3,0-8-44.59-54.85-44.59Z"/></g><g id="b499ea1a-4f03-4894-997c-181993b1344d" data-name="82pct" class="a4aa7209-a05b-41ba-addc-13a68c9f811b"><path class="ab5f5cac-3b7f-4509-b5ea-9a0e1760d539" d="M171.2,162c5.78,1.07,9.91,2.9,12.49,5.51,3.76,3.8,4,8.93,4.28,14.37.33,6.64.69,13.9,8.2,18.5-15.57-3.09-16.15-11.43-16.76-20.16-.46-6.55-1-13.72-8.21-18.22m-14.5-2.66c43.17,4.38-4.35,43.59,54.61,43.81-44.9-4.56,4.58-43.59-54.61-43.81Z"/></g></g><g id="f1d7eefd-bf92-4be9-8c29-33f4d9d984e5" data-name="Layer 6"><circle class="b5c8ad10-6c46-4994-bc33-686a6d10b167" cx="182.04" cy="177.24" r="102.68"/><path class="b9d5ff3b-40d7-4bc4-a6be-11055910b664" d="M182,74.56A102.69,102.69,0,1,1,79.36,177.24,102.68,102.68,0,0,1,182,74.56m0-41A143.36,143.36,0,1,0,238,44.87,142.88,142.88,0,0,0,182,33.56Z"/></g><g id="f721277e-6c51-4c24-ac05-0d515e6d36e4" data-name="Layer 10"><path class="acf4c88b-e420-448d-a335-a2ebbd2b0008" d="M20.39,308.74c116.49-11.39,120.46-65.33,124.66-122.43,2.47-33.56,5-68.27,31.29-94.4,14.11-14,33.65-24.35,59.73-31.5,29.06-8,65.46-11.82,111.27-11.82l.24,5c-122.44,12-125.35,66.65-128.42,124.52-3.54,66.68-7.2,135.64-198.52,135.64Z"/><path class="a3ad81cd-53a7-4489-8cf9-dd0276653520" d="M347.34,51.09c-268,26.21,26.42,260.14-326.7,260.14C278.27,286-4.38,51.09,347.34,51.09m0-5c-46,0-82.65,3.89-111.93,11.91C208.9,65.26,189,75.77,174.58,90.13c-26.93,26.8-29.52,62-32,96-2.1,28.5-4.08,55.42-19.63,76.86-8.28,11.43-19.76,20.37-35.1,27.33-17.58,8-39.72,13.2-67.68,15.93l.49,10c45.84,0,82.2-3.82,111.15-11.68,26.26-7.12,45.87-17.45,59.94-31.57,26.3-26.38,28.14-61.14,29.93-94.76,1.53-28.79,3-56,18.81-77.79,8.47-11.64,20.36-20.77,36.36-27.91,18.11-8.09,42-13.62,71-16.46l-.49-10Z"/><g class="bc5598cd-50a1-482a-9c93-43704e2bc41f"><path class="ab5f5cac-3b7f-4509-b5ea-9a0e1760d539" d="M256.28,67.5a93.16,93.16,0,0,0-27.13,24.7c-18.28,25.15-19.9,55.72-21.47,85.28-1.73,32.41-3.35,63-25.87,85.62-15.4,15.45-39.91,26.24-74.15,32.52a92.34,92.34,0,0,0,26.61-24.41c17.88-24.67,20.1-54.86,22.25-84.06,2.42-32.9,4.71-64,27.93-87.09C199.77,84.81,223.53,74,256.28,67.5m91.06-16.41C-4.38,51.09,278.27,286,20.64,311.23c353.12,0,58.72-233.93,326.7-260.14Z"/></g><g id="b1f709ea-4068-4da6-8650-2987894e2652" data-name="82pct" class="bc5598cd-50a1-482a-9c93-43704e2bc41f"><path class="ab5f5cac-3b7f-4509-b5ea-9a0e1760d539" d="M228.89,80.25a76.5,76.5,0,0,0-19,23.3c-11.79,22.61-9.41,47.6-7.11,71.76,2.52,26.5,4.89,51.53-10.64,72.57-10.62,14.39-29.2,26.1-56.21,35.33a75.53,75.53,0,0,0,18.63-23c11.52-22.17,9.68-46.92,7.89-70.86-2-27-3.91-52.47,12.14-74,10.58-14.21,28.55-25.85,54.32-35.07m71.88-24.32C15.5,98.41,273.12,254.83,67.21,306.38c286.4-42.65,19.38-196.82,233.56-250.45Z"/></g><g id="a7b03c24-ee9a-4af0-9072-bcd9189aef7d" data-name="82pct" class="aed7e3c5-e91a-496e-b339-c327dd0a3c85"><path class="ab5f5cac-3b7f-4509-b5ea-9a0e1760d539" d="M208.07,93.85a62.63,62.63,0,0,0-12.58,21.22c-6.8,19.77-1.81,39.74,3,59.06,5.28,21.17,10.27,41.17.25,60.14-6.86,13-20.49,24.73-41.26,35.52a62.19,62.19,0,0,0,12.29-20.94c6.64-19.38,2.11-39.23-2.26-58.42-4.93-21.63-9.58-42.07.79-61.5,6.85-12.82,20-24.45,39.77-35.08m55.3-28.5C37.26,134.66,265.27,230,104.61,297c227-69.59-8.35-162,158.76-231.62Z"/></g><g id="e1148724-3ed1-4ac1-9226-89e77cf8c39e" data-name="82pct" class="fed44a77-5ef8-4d6b-bd9f-158af860700c"><path class="ab5f5cac-3b7f-4509-b5ea-9a0e1760d539" d="M193.3,107.54a51.63,51.63,0,0,0-7.66,18.64c-3.22,16.83,3.15,32.47,9.3,47.58,6.75,16.58,13.13,32.23,7.2,48.79-4,11.3-13.72,22.43-29.29,33.58a51.27,51.27,0,0,0,7.47-18.37c3.13-16.51-2.85-32.09-8.63-47.16-6.51-17-12.67-33-6.51-50,4.06-11.19,13.35-22.14,28.12-33M235,77.92C59.48,160.49,255.64,211.35,133,284.4,309.2,201.5,107.41,153.9,235,77.92Z"/></g><g id="ab1ae1b9-5809-48d8-90b4-3a1886657d40" data-name="82pct" class="a2b784e7-28b3-4492-ad4c-10d8ad2792a2"><path class="ab5f5cac-3b7f-4509-b5ea-9a0e1760d539" d="M182.4,120.33a42.49,42.49,0,0,0-3.9,16.06c-.52,14,6.58,25.92,13.45,37.41,7.53,12.6,14.64,24.5,11.89,38.66-1.88,9.66-8.34,19.88-19.57,30.85A42.06,42.06,0,0,0,188,227.49c.49-13.77-6.29-25.66-12.85-37.15-7.39-13-14.37-25.2-11.48-39.73,1.9-9.57,8.07-19.6,18.69-30.28m30.08-29.18c-132,88.7,33.34,105.58-57,180,132.5-89.05-37-102.59,57-180Z"/></g><g id="b7761d27-6a02-4abb-8db8-2f7d007f0af1" data-name="82pct" class="ba778b8e-0261-4b85-a182-23012ad862e6"><path class="ab5f5cac-3b7f-4509-b5ea-9a0e1760d539" d="M175.5,132a34.7,34.7,0,0,0-1.26,13.49c1.24,11.46,8.41,20.26,15.34,28.77,7.6,9.33,14.78,18.14,14.22,29.95-.38,8.07-4.42,17.12-12.23,27.35a34.46,34.46,0,0,0,1.19-13.28c-1.23-11.23-8.14-20.07-14.82-28.62-7.53-9.64-14.64-18.75-14-30.88.41-8,4.23-16.86,11.58-26.78m21-27.24c-96.6,87.6,39.54,81.73-24.94,152.81,97-87.94-42.13-78.87,24.94-152.81Z"/></g><g id="e4dad3d1-9f77-4d9f-bacc-e83bc8db9f2e" data-name="82pct" class="b8aa2912-d38a-4052-81d2-0352879d1a5f"><path class="ab5f5cac-3b7f-4509-b5ea-9a0e1760d539" d="M171.06,142.18c-2.13,15.76,7.64,24.58,16.58,32.67,7.32,6.61,14.23,12.86,15.25,22.51.69,6.58-1.45,14.42-6.51,23.68a28.3,28.3,0,0,0-.69-10.91c-2.4-8.95-9.1-15.25-15.57-21.36-7.31-6.87-14.2-13.37-15.21-23.28-.66-6.57,1.36-14.28,6.15-23.31m13.51-24.52c-67.4,83,42.21,61.32-1.21,127,67.67-83.34-44-58.69,1.21-127Z"/></g><g id="edeb35d0-00da-41b8-bafb-39540fbb230a" data-name="82pct" class="bb9aad70-8c49-4400-9ecb-c6b6404348f4"><path class="ab5f5cac-3b7f-4509-b5ea-9a0e1760d539" d="M168.92,151c.12,13,9.08,19.06,17.28,24.57,6.71,4.52,13.05,8.78,15,16.49,1.34,5.3.5,12-2.58,20.15-.17-12.69-8.91-18.83-16.91-24.45-6.73-4.73-13.09-9.19-15.06-17.12-1.31-5.25-.57-11.75,2.26-19.64m8.1-21.48c-45,75.26,41.43,44.84,13.87,103.18,45.17-75.55-42.54-42.49-13.87-103.18Z"/></g><g id="b5e479d0-59de-4e9a-88fa-ba08342b6b86" data-name="82pct" class="e71cc7f3-333b-4d81-8578-610493d623b8"><path class="ab5f5cac-3b7f-4509-b5ea-9a0e1760d539" d="M168,158.56c1.71,10.6,9.74,14.36,17.09,17.8,6,2.82,11.68,5.48,14.23,11.48,1.76,4.12,1.91,9.63.45,16.65-1.73-10.27-9.59-14.15-16.78-17.7-9.56-4.72-18.7-9.23-15-28.23m3.87-18.36c-27,66.63,39.21,31.12,24.19,81.86,27.12-66.89-39.8-29.09-24.19-81.86Z"/></g><g id="bcae9f43-6413-44f0-975b-3607d0d95d5d" data-name="82pct" class="a4aa7209-a05b-41ba-addc-13a68c9f811b"><path class="ab5f5cac-3b7f-4509-b5ea-9a0e1760d539" d="M168.33,164.7c2.64,8.39,9.6,10.5,16,12.43,5.2,1.57,10.12,3.06,12.9,7.63,1.91,3.14,2.68,7.59,2.33,13.46-2.62-8.13-9.45-10.35-15.7-12.38-8.32-2.7-16.27-5.28-15.5-21.14m1-15.36c-14.05,57.26,35.49,20.63,29.29,63.58,14.11-57.48-35.73-18.91-29.29-63.58Z"/></g></g></svg>