<svg xmlns="http://www.w3.org/2000/svg" xmlns:xlink="http://www.w3.org/1999/xlink" viewBox="0 0 420 420"><defs><style>.cls-1{opacity:0.55;}.cls-2{fill:#242424;}.cls-3{fill:#171717;}.cls-4{opacity:0.49;}.cls-5{fill:#ccad6e;}.cls-6{opacity:0.44;}.cls-7{opacity:0.39;}.cls-8{opacity:0.34;}.cls-9{opacity:0.29;}.cls-10{opacity:0.24;}.cls-11{opacity:0.19;}.cls-12{opacity:0.09;}.cls-13{opacity:0.04;}.cls-14{fill:url(#radial-gradient);}.cls-15{fill:url(#radial-gradient-2);}</style><radialGradient id="radial-gradient" cx="214.59" cy="209.04" r="102.68" gradientUnits="userSpaceOnUse"><stop offset="0" stop-color="#ffb61a"/><stop offset="0.54" stop-color="#fdb51a"/><stop offset="0.73" stop-color="#f6b019"/><stop offset="0.87" stop-color="#eba818"/><stop offset="0.98" stop-color="#da9d15"/><stop offset="1" stop-color="#d69a15"/></radialGradient><radialGradient id="radial-gradient-2" cx="214.59" cy="209.04" r="143.68" gradientUnits="userSpaceOnUse"><stop offset="0.73" stop-color="#ffebbd"/><stop offset="0.8" stop-color="#b4a685" stop-opacity="0.74"/><stop offset="0.87" stop-color="#68604d" stop-opacity="0.47"/><stop offset="0.93" stop-color="#302c23" stop-opacity="0.27"/><stop offset="0.98" stop-color="#0d0c0a" stop-opacity="0.15"/><stop offset="1" stop-opacity="0.1"/></radialGradient></defs><g id="Layer_11" data-name="Layer 11" class="cls-1"><path class="cls-2" d="M48.39,339.38c16-64.11,35.29-108.12,59-134.53,19.46-21.67,41.91-31.76,70.64-31.76,16.56,0,33.55,3.3,50,6.48,16.07,3.11,32.69,6.33,48.52,6.33,21.88,0,39.28-6.13,54.75-19.3,18.92-16.11,34.82-42.77,48.61-81.52l4.78,1.44c-16.27,65.29-36.18,110-60.84,136.74-20,21.71-43.3,31.82-73.22,31.82-16.11,0-32.58-2.84-48.51-5.59-15.47-2.67-31.47-5.43-46.65-5.43-22.06,0-39.44,5.84-54.71,18.4-18.75,15.41-34.31,41-47.59,78.36Z"/><path class="cls-3" d="M382.27,85.92c-34.79,139.51-82,166.66-131.64,166.66-31.62,0-64.2-11-95.16-11-39.29,0-76,17.77-104.66,98.42C84.9,203.26,130.18,175.59,178,175.59c32.55,0,66.29,12.81,98.51,12.81,39.1,0,76-18.89,105.72-102.48m-4.71-1.68c-13.64,38.33-29.3,64.64-47.88,80.46-15,12.76-31.87,18.7-53.13,18.7-15.59,0-32.09-3.2-48.05-6.29-16.55-3.2-33.66-6.51-50.46-6.52-29.5,0-52.54,10.36-72.5,32.59-24,26.73-43.49,71.08-59.58,135.59l9.56,2.89C68.65,304.78,84,279.5,102.35,264.39c14.79-12.17,31.67-17.83,53.12-17.83,15,0,30.15,2.62,46.23,5.39s32.6,5.63,48.93,5.63c30.66,0,54.51-10.37,75.06-32.62,24.95-27,45.05-72.13,61.43-137.83l-9.56-2.89Z"/><g class="cls-4"><path class="cls-5" d="M344.43,170.16c-8.87,18.88-18.51,33.9-29,45.3-17.95,19.45-37.92,28.12-64.77,28.12-15.13,0-31.1-2.76-46.55-5.42-16-2.76-32.44-5.6-48.61-5.6-24.87,0-44.58,6.68-62,21q-3.3,2.71-6.48,5.8C116,195.17,148.6,184.59,178,184.59c15.45,0,31.16,3,47.79,6.27s33.79,6.54,50.72,6.54c24.43,0,44.78-7.21,62.2-22q2.89-2.46,5.68-5.2m37.84-84.24C352.52,169.51,315.65,188.4,276.55,188.4c-32.22,0-66-12.8-98.51-12.81-47.86,0-93.14,27.67-127.23,164.39,28.7-80.65,65.37-98.42,104.66-98.42,31,0,63.54,11,95.16,11,49.62,0,96.85-27.15,131.64-166.66Z"/></g><g id="_82pct" data-name="82pct" class="cls-4"><path class="cls-5" d="M177,184.39c16.36,0,32.55,5.72,49.71,11.77,17.39,6.13,35.38,12.48,53.9,12.48,16.29,0,31-4.89,44.78-14.94A161.84,161.84,0,0,1,303.15,221c-15.58,14.95-31.45,21.91-49.94,21.91-16.43,0-32.65-5.35-49.82-11s-34.91-11.52-53-11.52c-16.37,0-31,4.79-44.65,14.64,7.54-11.7,15.18-21.3,23-28.9,15.18-14.82,30.52-21.72,48.29-21.72M366.3,129.94c-29.75,55.81-57.95,71.32-85.65,71.32C246,201.26,212.16,177,177,177c-34.84,0-70.92,23.86-110.26,119,28.49-53.44,56.13-68.22,83.65-68.22,34,0,67.79,22.53,102.78,22.53,36,0,73.15-23.78,113.09-120.34Z"/></g><g id="_82pct-2" data-name="82pct" class="cls-6"><path class="cls-5" d="M180.23,184.37c16.16,0,31,7.87,46.64,16.21C243,209.14,259.63,218,278.37,218a61.78,61.78,0,0,0,28.79-7.3c-19.44,21.42-37.83,31.66-56.25,31.66-16.39,0-31.43-7.61-47.35-15.66-16.07-8.13-32.7-16.54-51.07-16.54a61.38,61.38,0,0,0-28.44,7.09c19.6-22.26,38-32.88,56.18-32.88M348.12,164c-27.13,36.48-49.52,48-69.75,48-34.61,0-63-33.63-98.13-33.63-26.19,0-56.14,18.62-95.27,83.64,25.84-34.77,47.58-45.75,67.52-45.75,34.15,0,63,32.2,98.42,32.2,26.93,0,57.61-18.67,97.21-84.46Z"/></g><g id="_82pct-3" data-name="82pct" class="cls-7"><path class="cls-5" d="M184.78,185.13c15.61,0,28.23,9.22,41.58,19,13.87,10.14,28.22,20.62,46.58,20.62a52.46,52.46,0,0,0,17.44-3.13,129.82,129.82,0,0,1-10.81,8.1c-11.7,7.77-22.36,11.55-32.61,11.55-15.91,0-28.85-9.06-42.55-18.65C190.46,212.84,176,202.74,158,202.74a51.68,51.68,0,0,0-17,3,129.87,129.87,0,0,1,12-9.16c11.49-7.71,21.91-11.45,31.85-11.45m0-5c-20.18,0-45.22,13.71-80.74,57.26,21.91-22.08,39.15-29.72,54-29.72,33.26,0,54.35,38.51,89,38.51,20.7,0,46.22-13.76,82.08-57.73-23.09,23.26-41,31.29-56.1,31.29-33.65,0-53.87-39.61-88.16-39.61Z"/></g><g id="_82pct-4" data-name="82pct" class="cls-8"><path class="cls-5" d="M189.15,182v4.07c15.41,0,25.62,10.17,36.44,20.94,11.34,11.28,23.06,23,41.29,23a45.36,45.36,0,0,0,8.39-.81c-12.21,7.31-22.89,10.91-32.25,10.91-15.76,0-26.33-10.1-37.52-20.79C194,208.29,182.15,197,164.27,197a45.23,45.23,0,0,0-8.07.75c12.6-7.79,23.51-11.63,33-11.63V182m0,0c-15.72,0-36.47,9.38-66.85,36.82,17.51-12.95,30.94-17.8,42-17.8,32.87,0,44.37,43.11,78.76,43.11,16.08,0,37.14-9.41,67.74-37-18.51,13.7-32.52,18.81-43.88,18.81-33.28,0-43.74-43.88-77.73-43.89Z"/></g><g id="_82pct-5" data-name="82pct" class="cls-9"><path class="cls-5" d="M192.93,184.24v3.34c15.46,0,23.32,10.5,31.65,21.62,8.8,11.74,17.89,23.88,36.1,23.88l1.62,0c-8.62,3.6-16.16,5.37-22.72,5.37-15.83,0-24.05-10.52-32.75-21.65-9-11.48-18.26-23.36-36.06-23.36l-1.42,0c9-3.92,16.84-5.85,23.57-5.85v-3.34m0,0c-12.36,0-29.15,6-53.55,22.33,13.07-7,23.2-9.82,31.39-9.82,32.77,0,34.34,45,68.81,45,12.6,0,29.58-6,54.1-22.42-13.87,7.44-24.51,10.41-33,10.41-33.27,0-33.69-45.5-67.75-45.51Z"/></g><g id="_82pct-6" data-name="82pct" class="cls-10"><path class="cls-5" d="M195.55,186.38v2.74c16.34,0,22,10.6,28,21.82,5.6,10.47,11.88,22.23,27.62,24a58,58,0,0,1-13.9,1.91c-16.71,0-22.7-10.69-29-22-5.75-10.25-12.2-21.76-27.49-23.58a59.13,59.13,0,0,1,14.82-2.17v-2.74m0,0c-9.62,0-22.6,3.34-40.74,11.83,8.76-3.1,15.82-4.43,21.62-4.43,34.14,0,24.72,45.82,60.83,45.82,9.77,0,22.85-3.34,41-11.85-9.33,3.3-16.8,4.71-22.87,4.71-34.79,0-24.15-46.08-59.87-46.08Z"/></g><g id="_82pct-7" data-name="82pct" class="cls-11"><path class="cls-5" d="M196.76,190.8c18,0,21.56,9.9,25.71,21.36,3.33,9.2,7,19.41,19.58,22.71a57.09,57.09,0,0,1-5.8.31c-18.34,0-22.39-10.5-26.68-21.63-3.48-9-7.35-19.06-19.54-22.33a58.64,58.64,0,0,1,6.73-.42m0-2.24c-7.19,0-16.46,1.55-28.58,5.22a66,66,0,0,1,12.74-1.42c36.74,0,16.18,45.07,55.33,45.07,7.26,0,16.57-1.55,28.69-5.23a69.72,69.72,0,0,1-13.58,1.52c-37.66,0-15.8-45.16-54.6-45.16Z"/></g><g id="_82pct-8" data-name="82pct" class="cls-12"><path class="cls-5" d="M197.74,192c19.73.74,21.58,10.19,23.72,21.05,1.55,7.94,3.26,16.63,13.06,20.87-19.27-1-21.42-10.92-23.69-21.35-1.7-7.82-3.57-16.4-13.09-20.57m-2.56-1.88a110.19,110.19,0,0,0-15.42,1.23c1.07-.05,2.1-.07,3.08-.07,43.75,0,8.07,44.57,55.13,44.57a110.57,110.57,0,0,0,15.38-1.22c-1.15.05-2.26.07-3.32.07-45.29,0-8-44.58-54.85-44.58Z"/></g><g id="_82pct-9" data-name="82pct" class="cls-13"><path class="cls-5" d="M203.75,193.75c5.78,1.07,9.91,2.9,12.49,5.51,3.76,3.8,4,8.94,4.29,14.37.32,6.65.68,13.91,8.19,18.5C213.15,229,212.57,220.7,212,212c-.46-6.56-1-13.72-8.21-18.23m-14.49-2.65c43.16,4.38-4.36,43.59,54.6,43.8-44.9-4.56,4.58-43.59-54.6-43.8Z"/></g></g><g id="Layer_6" data-name="Layer 6"><circle class="cls-14" cx="214.59" cy="209.04" r="102.68"/><path class="cls-15" d="M214.59,106.36A102.68,102.68,0,1,1,111.91,209,102.68,102.68,0,0,1,214.59,106.36m0-41a143.41,143.41,0,1,0,55.94,11.31,142.7,142.7,0,0,0-55.94-11.31Z"/></g><g id="Layer_10" data-name="Layer 10"><path class="cls-2" d="M53,340.53C169.43,329.14,173.4,275.21,177.6,218.1c2.47-33.56,5-68.26,31.29-94.4,14.11-14,33.65-24.35,59.73-31.49,29.06-8,65.46-11.83,111.27-11.83l.25,5C257.69,97.34,254.78,152,251.71,209.88c-3.54,66.69-7.2,135.64-198.52,135.64Z"/><path class="cls-3" d="M379.89,82.88C111.91,109.09,406.31,343,53.19,343c257.63-25.2-25-260.14,326.7-260.14m0-5c-46,0-82.65,3.9-111.93,11.92-26.51,7.26-46.4,17.77-60.83,32.13-26.93,26.79-29.52,62-32,96-2.1,28.5-4.08,55.42-19.63,76.87-8.28,11.43-19.76,20.37-35.09,27.33-17.59,8-39.73,13.19-67.69,15.93l.49,10c45.84,0,82.2-3.82,111.15-11.67,26.26-7.13,45.87-17.45,59.94-31.57,26.3-26.39,28.14-61.15,29.93-94.76,1.53-28.8,3-56,18.81-77.8,8.47-11.64,20.36-20.77,36.36-27.91,18.11-8.08,42-13.62,71-16.45l-.49-10Z"/><g class="cls-4"><path class="cls-5" d="M288.83,99.3A93.13,93.13,0,0,0,261.7,124c-18.28,25.15-19.9,55.72-21.47,85.28-1.72,32.42-3.35,63-25.87,85.62-15.4,15.45-39.91,26.24-74.15,32.52A92.2,92.2,0,0,0,166.82,303c17.88-24.66,20.1-54.86,22.25-84.05,2.42-32.91,4.71-64,27.93-87.1,15.32-15.25,39.08-26,71.83-32.55m91.06-16.42C28.17,82.88,310.82,317.82,53.19,343c353.12,0,58.72-233.93,326.7-260.14Z"/></g><g id="_82pct-10" data-name="82pct" class="cls-4"><path class="cls-5" d="M261.45,112a76.31,76.31,0,0,0-19,23.31c-11.79,22.6-9.41,47.59-7.11,71.76,2.52,26.49,4.89,51.52-10.64,72.56-10.62,14.4-29.2,26.11-56.21,35.34a75.69,75.69,0,0,0,18.63-23c11.52-22.16,9.68-46.92,7.89-70.86-2-27-3.9-52.46,12.14-74,10.58-14.22,28.55-25.85,54.33-35.08m71.87-24.31C48.05,130.21,305.67,286.62,99.76,338.18c286.4-42.65,19.38-196.83,233.56-250.45Z"/></g><g id="_82pct-11" data-name="82pct" class="cls-6"><path class="cls-5" d="M240.62,125.64A62.63,62.63,0,0,0,228,146.86c-6.79,19.77-1.81,39.74,3,59.06,5.28,21.18,10.27,41.18.25,60.14-6.86,13-20.49,24.73-41.26,35.52a61.93,61.93,0,0,0,12.29-20.94c6.64-19.38,2.11-39.23-2.26-58.42-4.93-21.63-9.58-42.06.79-61.5,6.85-12.82,20-24.45,39.77-35.08m55.3-28.5c-226.11,69.31,1.9,164.65-158.76,231.62,227-69.59-8.35-162,158.76-231.62Z"/></g><g id="_82pct-12" data-name="82pct" class="cls-7"><path class="cls-5" d="M225.85,139.34A51.66,51.66,0,0,0,218.19,158c-3.22,16.84,3.15,32.47,9.3,47.59,6.75,16.57,13.13,32.23,7.2,48.78-4.05,11.31-13.72,22.43-29.28,33.58a51.43,51.43,0,0,0,7.46-18.37c3.13-16.5-2.84-32.09-8.63-47.16-6.51-17-12.67-33-6.51-50,4.06-11.18,13.35-22.13,28.12-33m41.65-29.63C92,192.28,288.2,243.14,165.58,316.19,341.75,233.29,140,185.7,267.5,109.71Z"/></g><g id="_82pct-13" data-name="82pct" class="cls-8"><path class="cls-5" d="M215,152.13a42.45,42.45,0,0,0-3.9,16.05c-.52,14,6.58,25.93,13.45,37.42,7.53,12.59,14.64,24.49,11.89,38.65-1.88,9.66-8.34,19.88-19.57,30.85a41.79,41.79,0,0,0,3.77-15.82c.49-13.76-6.29-25.65-12.85-37.15-7.39-13-14.37-25.2-11.48-39.73,1.9-9.57,8.07-19.6,18.69-30.27M245,122.94c-132,88.71,33.34,105.59-57,180,132.5-89.06-37-102.6,57-180Z"/></g><g id="_82pct-14" data-name="82pct" class="cls-9"><path class="cls-5" d="M208.05,163.79a34.66,34.66,0,0,0-1.26,13.48c1.24,11.46,8.41,20.26,15.34,28.77,7.6,9.33,14.78,18.15,14.22,30-.38,8.06-4.41,17.12-12.23,27.35a34.46,34.46,0,0,0,1.19-13.28c-1.23-11.23-8.14-20.08-14.82-28.63-7.53-9.64-14.64-18.75-14-30.88.41-8,4.23-16.85,11.58-26.77m21-27.24c-96.6,87.59,39.54,81.72-24.94,152.81,97-88-42.13-78.88,24.94-152.81Z"/></g><g id="_82pct-15" data-name="82pct" class="cls-10"><path class="cls-5" d="M203.61,174c-2.13,15.76,7.64,24.59,16.58,32.67,7.32,6.62,14.23,12.87,15.25,22.51.69,6.58-1.45,14.42-6.51,23.69a28.34,28.34,0,0,0-.69-10.92c-2.39-8.94-9.09-15.25-15.57-21.35-7.31-6.88-14.2-13.37-15.21-23.28-.66-6.57,1.36-14.29,6.15-23.32m13.51-24.51c-67.4,83,42.21,61.32-1.21,127,67.67-83.34-44-58.68,1.21-127Z"/></g><g id="_82pct-16" data-name="82pct" class="cls-11"><path class="cls-5" d="M201.47,182.81c.12,13,9.08,19.07,17.28,24.58,6.71,4.51,13.05,8.78,15,16.49,1.34,5.29.5,12-2.58,20.14-.17-12.69-8.91-18.83-16.91-24.45-6.73-4.73-13.09-9.19-15.06-17.12-1.31-5.25-.57-11.75,2.26-19.64m8.1-21.47c-45,75.25,41.43,44.83,13.87,103.18C268.61,189,180.9,222,209.57,161.34Z"/></g><g id="_82pct-17" data-name="82pct" class="cls-12"><path class="cls-5" d="M200.53,190.36c1.72,10.59,9.74,14.35,17.09,17.79,6,2.82,11.68,5.48,14.23,11.48,1.76,4.12,1.91,9.63.45,16.65-1.73-10.27-9.59-14.14-16.77-17.69-9.57-4.72-18.71-9.23-15-28.23M204.4,172c-27,66.63,39.21,31.13,24.2,81.87,27.11-66.9-39.81-29.09-24.2-81.87Z"/></g><g id="_82pct-18" data-name="82pct" class="cls-13"><path class="cls-5" d="M200.88,196.5c2.64,8.39,9.6,10.49,16,12.42,5.2,1.58,10.12,3.06,12.9,7.63,1.91,3.14,2.68,7.59,2.33,13.46-2.62-8.12-9.45-10.34-15.7-12.37-8.32-2.71-16.27-5.29-15.5-21.14m1-15.37c-14,57.26,35.49,20.64,29.29,63.58,14.12-57.48-35.73-18.9-29.29-63.58Z"/></g></g></svg>