<svg width="36" height="36" viewBox="0 0 36 36" fill="none" xmlns="http://www.w3.org/2000/svg">
<path d="M36 0H0V36H36V0Z" fill="#F7F7F7"/>
<path d="M8.59098 12.0398C8.62102 11.7429 8.50781 11.4495 8.28613 11.2497L6.02799 8.5294V8.12305H13.0395L18.459 20.0088L23.2237 8.12305H29.9078V8.5294L27.9771 10.3805C27.8106 10.5074 27.728 10.7159 27.7625 10.9223V24.5238C27.728 24.7301 27.8106 24.9387 27.9771 25.0656L29.8626 26.9167V27.3231H20.3784V26.9167L22.3317 25.0204C22.5237 24.8285 22.5237 24.7721 22.5237 24.4786V13.4846L17.0929 27.2779H16.359L10.0362 13.4846V22.729C9.98346 23.1177 10.1125 23.509 10.3862 23.7901L12.9266 26.8716V27.2779H5.72314V26.8716L8.26355 23.7901C8.5352 23.5085 8.65675 23.1146 8.59098 22.729V12.0398Z" fill="black"/>
</svg>
