<svg width="17" height="17" viewBox="0 0 17 17" fill="none" xmlns="http://www.w3.org/2000/svg">
<mask id="mask0_1123_13516" style="mask-type:alpha" maskUnits="userSpaceOnUse" x="0" y="0" width="17" height="17">
<rect width="17" height="17" fill="#C4C4C4"/>
</mask>
<g mask="url(#mask0_1123_13516)">
<path d="M13.5 14.3333H3.5C3.04167 14.3333 2.66667 13.9583 2.66667 13.5V3.5C2.66667 3.04167 3.04167 2.66667 3.5 2.66667H7.66667C8.125 2.66667 8.5 2.29167 8.5 1.83333C8.5 1.375 8.125 1 7.66667 1H2.66667C1.74167 1 1 1.75 1 2.66667V14.3333C1 15.25 1.75 16 2.66667 16H14.3333C15.25 16 16 15.25 16 14.3333V9.33333C16 8.875 15.625 8.5 15.1667 8.5C14.7083 8.5 14.3333 8.875 14.3333 9.33333V13.5C14.3333 13.9583 13.9583 14.3333 13.5 14.3333ZM10.1667 1.83333C10.1667 2.29167 10.5417 2.66667 11 2.66667H13.1583L5.55 10.275C5.225 10.6 5.225 11.125 5.55 11.45C5.875 11.775 6.4 11.775 6.725 11.45L14.3333 3.84167V6C14.3333 6.45833 14.7083 6.83333 15.1667 6.83333C15.625 6.83333 16 6.45833 16 6V1H11C10.5417 1 10.1667 1.375 10.1667 1.83333Z" fill="#FFB61A"/>
</g>
</svg>
