<svg width="36" height="36" viewBox="0 0 36 36" fill="none" xmlns="http://www.w3.org/2000/svg">
<path d="M15 18C18.3137 18 21 15.3137 21 12C21 8.68629 18.3137 6 15 6C11.6863 6 9 8.68629 9 12C9 15.3137 11.6863 18 15 18Z" fill="#F85931"/>
<path d="M15.525 21.015C11.43 20.865 3 22.905 3 27V28.5C3 29.325 3.675 30 4.5 30H17.31C13.605 25.86 15.465 21.165 15.525 21.015Z" fill="#F85931"/>
<path d="M29.1449 27.0298C29.8499 25.8298 30.1949 24.3748 29.8649 22.7998C29.3549 20.3398 27.2849 18.3748 24.7949 18.0598C20.8499 17.5498 17.5199 20.8648 18.0449 24.8098C18.3749 27.2998 20.3249 29.3698 22.7849 29.8798C24.3599 30.2098 25.8149 29.8648 27.0149 29.1598L29.8049 31.9498C30.3899 32.5348 31.3349 32.5348 31.9199 31.9498C32.5049 31.3648 32.5049 30.4198 31.9199 29.8348L29.1449 27.0298ZM23.9999 26.9998C22.3499 26.9998 20.9999 25.6498 20.9999 23.9998C20.9999 22.3498 22.3499 20.9998 23.9999 20.9998C25.6499 20.9998 26.9999 22.3498 26.9999 23.9998C26.9999 25.6498 25.6499 26.9998 23.9999 26.9998Z" fill="#F85931"/>
</svg>
