<svg width="36" height="36" viewBox="0 0 36 36" fill="none" xmlns="http://www.w3.org/2000/svg">
<path d="M25.5 16.4998C26.01 16.4998 26.505 16.5598 27 16.6348V11.3698C27 10.1698 26.295 9.08984 25.2 8.62484L16.95 5.02484C16.185 4.69484 15.315 4.69484 14.55 5.02484L6.3 8.62484C5.205 9.10484 4.5 10.1848 4.5 11.3698V16.7698C4.5 23.5798 9.3 29.9548 15.75 31.4998C16.575 31.3048 17.37 31.0198 18.15 30.6748C17.115 29.2048 16.5 27.4198 16.5 25.4998C16.5 20.5348 20.535 16.4998 25.5 16.4998Z" fill="#FFB61A"/>
<path d="M25.5 19.5C22.185 19.5 19.5 22.185 19.5 25.5C19.5 28.815 22.185 31.5 25.5 31.5C28.815 31.5 31.5 28.815 31.5 25.5C31.5 22.185 28.815 19.5 25.5 19.5ZM25.5 21.57C26.43 21.57 27.18 22.335 27.18 23.25C27.18 24.165 26.415 24.93 25.5 24.93C24.585 24.93 23.82 24.165 23.82 23.25C23.82 22.335 24.57 21.57 25.5 21.57ZM25.5 29.625C24.105 29.625 22.89 28.935 22.14 27.87C22.215 26.79 24.405 26.25 25.5 26.25C26.595 26.25 28.785 26.79 28.86 27.87C28.11 28.935 26.895 29.625 25.5 29.625Z" fill="#FFB61A"/>
</svg>
